<mxfile host="app.diagrams.net" agent="Mozilla/5.0 (Windows NT 10.0; Win64; x64) AppleWebKit/537.36 (KHTML, like Gecko) Chrome/105.0.0.0 Safari/537.36" version="24.7.17" pages="4">
  <diagram name="第 1 页" id="1kzofX-mnXkjj4ZD5Bhs">
    <mxGraphModel dx="1434" dy="764" grid="1" gridSize="10" guides="1" tooltips="1" connect="1" arrows="1" fold="1" page="1" pageScale="1" pageWidth="827" pageHeight="1169" math="0" shadow="0">
      <root>
        <mxCell id="0" />
        <mxCell id="1" parent="0" />
        <mxCell id="eUoQw1heH1Ha-4D0tSo9-1" value="" style="endArrow=none;html=1;rounded=0;" edge="1" parent="1">
          <mxGeometry width="50" height="50" relative="1" as="geometry">
            <mxPoint x="560" y="800" as="sourcePoint" />
            <mxPoint x="560" y="80" as="targetPoint" />
          </mxGeometry>
        </mxCell>
        <mxCell id="eUoQw1heH1Ha-4D0tSo9-2" value="" style="endArrow=none;html=1;rounded=0;" edge="1" parent="1">
          <mxGeometry width="50" height="50" relative="1" as="geometry">
            <mxPoint x="289.9999999999998" y="800" as="sourcePoint" />
            <mxPoint x="289.9999999999998" y="80" as="targetPoint" />
          </mxGeometry>
        </mxCell>
        <mxCell id="eUoQw1heH1Ha-4D0tSo9-3" value="" style="endArrow=none;dashed=1;html=1;dashPattern=1 3;strokeWidth=2;rounded=0;" edge="1" parent="1">
          <mxGeometry width="50" height="50" relative="1" as="geometry">
            <mxPoint x="120" y="530" as="sourcePoint" />
            <mxPoint x="860" y="530" as="targetPoint" />
          </mxGeometry>
        </mxCell>
        <mxCell id="eUoQw1heH1Ha-4D0tSo9-4" value="" style="endArrow=none;dashed=1;html=1;dashPattern=1 3;strokeWidth=2;rounded=0;" edge="1" parent="1">
          <mxGeometry width="50" height="50" relative="1" as="geometry">
            <mxPoint x="130" y="320" as="sourcePoint" />
            <mxPoint x="850" y="320" as="targetPoint" />
          </mxGeometry>
        </mxCell>
      </root>
    </mxGraphModel>
  </diagram>
  <diagram name="整体方案设计" id="Hf7sDBpLcyYU4rpzJbyL">
    <mxGraphModel dx="2261" dy="1933" grid="1" gridSize="10" guides="1" tooltips="1" connect="1" arrows="1" fold="1" page="1" pageScale="1" pageWidth="827" pageHeight="1169" math="0" shadow="0">
      <root>
        <mxCell id="sF2VQWqcSzlpj-m-mOAS-0" />
        <mxCell id="sF2VQWqcSzlpj-m-mOAS-1" parent="sF2VQWqcSzlpj-m-mOAS-0" />
        <mxCell id="sF2VQWqcSzlpj-m-mOAS-10" style="edgeStyle=orthogonalEdgeStyle;rounded=0;orthogonalLoop=1;jettySize=auto;html=1;exitX=0.5;exitY=0.5;exitDx=0;exitDy=0;exitPerimeter=0;" parent="sF2VQWqcSzlpj-m-mOAS-1" source="sF2VQWqcSzlpj-m-mOAS-2" target="sF2VQWqcSzlpj-m-mOAS-3" edge="1">
          <mxGeometry relative="1" as="geometry">
            <mxPoint x="-350" y="487" as="sourcePoint" />
            <Array as="points">
              <mxPoint x="-395" y="497" />
            </Array>
          </mxGeometry>
        </mxCell>
        <mxCell id="sF2VQWqcSzlpj-m-mOAS-2" value="Actor" style="shape=umlActor;verticalLabelPosition=bottom;verticalAlign=top;html=1;outlineConnect=0;" parent="sF2VQWqcSzlpj-m-mOAS-1" vertex="1">
          <mxGeometry x="-410" y="450" width="30" height="60" as="geometry" />
        </mxCell>
        <mxCell id="sF2VQWqcSzlpj-m-mOAS-3" value="" style="rounded=1;whiteSpace=wrap;html=1;" parent="sF2VQWqcSzlpj-m-mOAS-1" vertex="1">
          <mxGeometry x="-270" y="160" width="280" height="700" as="geometry" />
        </mxCell>
        <mxCell id="sF2VQWqcSzlpj-m-mOAS-4" value="" style="rounded=1;whiteSpace=wrap;html=1;" parent="sF2VQWqcSzlpj-m-mOAS-1" vertex="1">
          <mxGeometry x="80" y="160" width="290" height="320" as="geometry" />
        </mxCell>
        <mxCell id="sF2VQWqcSzlpj-m-mOAS-9" value="" style="rounded=1;whiteSpace=wrap;html=1;" parent="sF2VQWqcSzlpj-m-mOAS-1" vertex="1">
          <mxGeometry x="440" y="157.5" width="760" height="692.5" as="geometry" />
        </mxCell>
        <mxCell id="sF2VQWqcSzlpj-m-mOAS-11" value="" style="rounded=1;whiteSpace=wrap;html=1;" parent="sF2VQWqcSzlpj-m-mOAS-1" vertex="1">
          <mxGeometry x="-330" y="-530" width="470" height="370" as="geometry" />
        </mxCell>
        <mxCell id="sF2VQWqcSzlpj-m-mOAS-12" value="" style="rounded=1;whiteSpace=wrap;html=1;fillColor=#dae8fc;strokeColor=#6c8ebf;" parent="sF2VQWqcSzlpj-m-mOAS-1" vertex="1">
          <mxGeometry x="-270" y="-520" width="340" height="100" as="geometry" />
        </mxCell>
        <mxCell id="sF2VQWqcSzlpj-m-mOAS-14" value="" style="rounded=1;whiteSpace=wrap;html=1;fillColor=#dae8fc;strokeColor=#6c8ebf;" parent="sF2VQWqcSzlpj-m-mOAS-1" vertex="1">
          <mxGeometry x="-270" y="-400" width="340" height="100" as="geometry" />
        </mxCell>
        <mxCell id="sF2VQWqcSzlpj-m-mOAS-16" value="" style="rounded=1;whiteSpace=wrap;html=1;fillColor=#f8cecc;strokeColor=#b85450;" parent="sF2VQWqcSzlpj-m-mOAS-1" vertex="1">
          <mxGeometry x="-270" y="-275" width="340" height="100" as="geometry" />
        </mxCell>
        <mxCell id="sF2VQWqcSzlpj-m-mOAS-18" value="BIZ_A" style="text;html=1;strokeColor=none;fillColor=none;align=center;verticalAlign=middle;whiteSpace=wrap;rounded=0;" parent="sF2VQWqcSzlpj-m-mOAS-1" vertex="1">
          <mxGeometry x="-150" y="-520" width="60" height="30" as="geometry" />
        </mxCell>
        <mxCell id="sF2VQWqcSzlpj-m-mOAS-19" value="BIZ_B" style="text;html=1;strokeColor=none;fillColor=none;align=center;verticalAlign=middle;whiteSpace=wrap;rounded=0;" parent="sF2VQWqcSzlpj-m-mOAS-1" vertex="1">
          <mxGeometry x="-150" y="-400" width="60" height="30" as="geometry" />
        </mxCell>
        <mxCell id="sF2VQWqcSzlpj-m-mOAS-20" value="Config" style="rounded=1;whiteSpace=wrap;html=1;" parent="sF2VQWqcSzlpj-m-mOAS-1" vertex="1">
          <mxGeometry x="-260" y="-484" width="120" height="50" as="geometry" />
        </mxCell>
        <mxCell id="sF2VQWqcSzlpj-m-mOAS-21" value="Data" style="rounded=1;whiteSpace=wrap;html=1;" parent="sF2VQWqcSzlpj-m-mOAS-1" vertex="1">
          <mxGeometry x="-110" y="-484" width="150" height="50" as="geometry" />
        </mxCell>
        <mxCell id="sF2VQWqcSzlpj-m-mOAS-22" value="Config" style="rounded=1;whiteSpace=wrap;html=1;" parent="sF2VQWqcSzlpj-m-mOAS-1" vertex="1">
          <mxGeometry x="-260" y="-370" width="120" height="50" as="geometry" />
        </mxCell>
        <mxCell id="sF2VQWqcSzlpj-m-mOAS-23" value="Data" style="rounded=1;whiteSpace=wrap;html=1;" parent="sF2VQWqcSzlpj-m-mOAS-1" vertex="1">
          <mxGeometry x="-110" y="-370" width="150" height="50" as="geometry" />
        </mxCell>
        <mxCell id="sF2VQWqcSzlpj-m-mOAS-24" value="Common" style="text;html=1;strokeColor=none;fillColor=none;align=center;verticalAlign=middle;whiteSpace=wrap;rounded=0;" parent="sF2VQWqcSzlpj-m-mOAS-1" vertex="1">
          <mxGeometry x="-150" y="-275" width="60" height="30" as="geometry" />
        </mxCell>
        <mxCell id="sF2VQWqcSzlpj-m-mOAS-93" style="edgeStyle=orthogonalEdgeStyle;rounded=0;orthogonalLoop=1;jettySize=auto;html=1;entryX=0;entryY=0.5;entryDx=0;entryDy=0;fontSize=21;endArrow=classic;endFill=1;" parent="sF2VQWqcSzlpj-m-mOAS-1" source="sF2VQWqcSzlpj-m-mOAS-28" target="sF2VQWqcSzlpj-m-mOAS-72" edge="1">
          <mxGeometry relative="1" as="geometry">
            <Array as="points">
              <mxPoint x="410" y="685" />
              <mxPoint x="410" y="384" />
            </Array>
          </mxGeometry>
        </mxCell>
        <mxCell id="sF2VQWqcSzlpj-m-mOAS-28" value="" style="rounded=1;whiteSpace=wrap;html=1;" parent="sF2VQWqcSzlpj-m-mOAS-1" vertex="1">
          <mxGeometry x="80" y="538" width="290" height="350" as="geometry" />
        </mxCell>
        <mxCell id="sF2VQWqcSzlpj-m-mOAS-29" value="" style="rounded=1;whiteSpace=wrap;html=1;" parent="sF2VQWqcSzlpj-m-mOAS-1" vertex="1">
          <mxGeometry x="-240" y="207.5" width="220" height="310" as="geometry" />
        </mxCell>
        <mxCell id="sF2VQWqcSzlpj-m-mOAS-87" style="edgeStyle=orthogonalEdgeStyle;rounded=0;orthogonalLoop=1;jettySize=auto;html=1;fontSize=21;endArrow=classic;endFill=1;" parent="sF2VQWqcSzlpj-m-mOAS-1" source="sF2VQWqcSzlpj-m-mOAS-31" target="sF2VQWqcSzlpj-m-mOAS-28" edge="1">
          <mxGeometry relative="1" as="geometry">
            <Array as="points">
              <mxPoint y="685" />
              <mxPoint y="685" />
            </Array>
          </mxGeometry>
        </mxCell>
        <mxCell id="sF2VQWqcSzlpj-m-mOAS-31" value="" style="rounded=1;whiteSpace=wrap;html=1;" parent="sF2VQWqcSzlpj-m-mOAS-1" vertex="1">
          <mxGeometry x="-240" y="538" width="220" height="290" as="geometry" />
        </mxCell>
        <mxCell id="sF2VQWqcSzlpj-m-mOAS-32" value="Commit1" style="rounded=1;whiteSpace=wrap;html=1;" parent="sF2VQWqcSzlpj-m-mOAS-1" vertex="1">
          <mxGeometry x="-210" y="247.5" width="160" height="50" as="geometry" />
        </mxCell>
        <mxCell id="sF2VQWqcSzlpj-m-mOAS-33" value="Commit2" style="rounded=1;whiteSpace=wrap;html=1;" parent="sF2VQWqcSzlpj-m-mOAS-1" vertex="1">
          <mxGeometry x="-210" y="327.5" width="160" height="50" as="geometry" />
        </mxCell>
        <mxCell id="sF2VQWqcSzlpj-m-mOAS-34" value="Commit3" style="rounded=1;whiteSpace=wrap;html=1;" parent="sF2VQWqcSzlpj-m-mOAS-1" vertex="1">
          <mxGeometry x="-210" y="407.5" width="160" height="50" as="geometry" />
        </mxCell>
        <mxCell id="sF2VQWqcSzlpj-m-mOAS-35" value="CommitA" style="rounded=1;whiteSpace=wrap;html=1;" parent="sF2VQWqcSzlpj-m-mOAS-1" vertex="1">
          <mxGeometry x="-210" y="573" width="160" height="50" as="geometry" />
        </mxCell>
        <mxCell id="sF2VQWqcSzlpj-m-mOAS-36" value="CommitB" style="rounded=1;whiteSpace=wrap;html=1;" parent="sF2VQWqcSzlpj-m-mOAS-1" vertex="1">
          <mxGeometry x="-210" y="653" width="160" height="50" as="geometry" />
        </mxCell>
        <mxCell id="sF2VQWqcSzlpj-m-mOAS-37" value="CommitC" style="rounded=1;whiteSpace=wrap;html=1;" parent="sF2VQWqcSzlpj-m-mOAS-1" vertex="1">
          <mxGeometry x="-210" y="733" width="160" height="50" as="geometry" />
        </mxCell>
        <mxCell id="sF2VQWqcSzlpj-m-mOAS-40" value="&lt;b&gt;&lt;font style=&quot;font-size: 19px&quot;&gt;GIT&lt;/font&gt;&lt;/b&gt;" style="text;html=1;strokeColor=none;fillColor=none;align=center;verticalAlign=middle;whiteSpace=wrap;rounded=0;" parent="sF2VQWqcSzlpj-m-mOAS-1" vertex="1">
          <mxGeometry x="-170" y="170" width="60" height="30" as="geometry" />
        </mxCell>
        <mxCell id="sF2VQWqcSzlpj-m-mOAS-41" value="BIZ_1" style="text;html=1;strokeColor=none;fillColor=none;align=center;verticalAlign=middle;whiteSpace=wrap;rounded=0;fontSize=19;" parent="sF2VQWqcSzlpj-m-mOAS-1" vertex="1">
          <mxGeometry x="-180" y="212.5" width="60" height="30" as="geometry" />
        </mxCell>
        <mxCell id="sF2VQWqcSzlpj-m-mOAS-42" value="COMMON" style="text;html=1;strokeColor=none;fillColor=none;align=center;verticalAlign=middle;whiteSpace=wrap;rounded=0;fontSize=19;" parent="sF2VQWqcSzlpj-m-mOAS-1" vertex="1">
          <mxGeometry x="-175" y="538" width="60" height="30" as="geometry" />
        </mxCell>
        <mxCell id="sF2VQWqcSzlpj-m-mOAS-52" style="edgeStyle=orthogonalEdgeStyle;rounded=0;orthogonalLoop=1;jettySize=auto;html=1;fontSize=21;dashed=1;dashPattern=1 2;endArrow=none;endFill=0;" parent="sF2VQWqcSzlpj-m-mOAS-1" source="sF2VQWqcSzlpj-m-mOAS-44" target="sF2VQWqcSzlpj-m-mOAS-51" edge="1">
          <mxGeometry relative="1" as="geometry">
            <Array as="points">
              <mxPoint x="45" y="235" />
            </Array>
          </mxGeometry>
        </mxCell>
        <mxCell id="sF2VQWqcSzlpj-m-mOAS-44" value="Summary.data" style="shape=note;whiteSpace=wrap;html=1;backgroundOutline=1;darkOpacity=0.05;fontSize=19;fillColor=#fff2cc;strokeColor=#d6b656;" parent="sF2VQWqcSzlpj-m-mOAS-1" vertex="1">
          <mxGeometry x="110" y="210" width="210" height="50" as="geometry" />
        </mxCell>
        <mxCell id="sF2VQWqcSzlpj-m-mOAS-47" value="&lt;b style=&quot;font-size: 20px&quot;&gt;&lt;span&gt;Commit2_&lt;/span&gt;&lt;span&gt;Commit3&lt;/span&gt;&lt;/b&gt;" style="shape=note;whiteSpace=wrap;html=1;backgroundOutline=1;darkOpacity=0.05;fontSize=19;fillColor=#dae8fc;strokeColor=#6c8ebf;" parent="sF2VQWqcSzlpj-m-mOAS-1" vertex="1">
          <mxGeometry x="110" y="347.5" width="210" height="30" as="geometry" />
        </mxCell>
        <mxCell id="sF2VQWqcSzlpj-m-mOAS-48" value="&lt;b style=&quot;font-size: 20px&quot;&gt;&lt;span&gt;Commit1_&lt;/span&gt;&lt;span&gt;Commit2&lt;/span&gt;&lt;/b&gt;" style="shape=note;whiteSpace=wrap;html=1;backgroundOutline=1;darkOpacity=0.05;fontSize=19;fillColor=#dae8fc;strokeColor=#6c8ebf;" parent="sF2VQWqcSzlpj-m-mOAS-1" vertex="1">
          <mxGeometry x="110" y="272.5" width="210" height="30" as="geometry" />
        </mxCell>
        <mxCell id="sF2VQWqcSzlpj-m-mOAS-49" value="&lt;b style=&quot;font-size: 20px&quot;&gt;&lt;span&gt;Commit1_&lt;/span&gt;&lt;span&gt;Commit3&lt;/span&gt;&lt;/b&gt;" style="shape=note;whiteSpace=wrap;html=1;backgroundOutline=1;darkOpacity=0.05;fontSize=19;fillColor=#dae8fc;strokeColor=#6c8ebf;" parent="sF2VQWqcSzlpj-m-mOAS-1" vertex="1">
          <mxGeometry x="110" y="312.5" width="210" height="30" as="geometry" />
        </mxCell>
        <mxCell id="sF2VQWqcSzlpj-m-mOAS-51" value="&lt;p&gt;&lt;span style=&quot;font-weight: normal&quot;&gt;&lt;font style=&quot;font-size: 21px&quot;&gt;valid_versions:[&quot;c1&quot;,&quot;c2&quot;,&quot;c3&quot;]&lt;/font&gt;&lt;/span&gt;&lt;/p&gt;&lt;p&gt;&lt;span style=&quot;font-weight: normal&quot;&gt;&lt;font style=&quot;font-size: 21px&quot;&gt;discard_versions:[&quot;c4&quot;],&lt;/font&gt;&lt;/span&gt;&lt;/p&gt;&lt;p&gt;&lt;span style=&quot;font-size: 21px&quot;&gt;keep_local_versions:4&lt;/span&gt;&lt;/p&gt;" style="text;html=1;strokeColor=#d6b656;fillColor=#fff2cc;spacing=5;spacingTop=-20;whiteSpace=wrap;overflow=hidden;rounded=0;fontSize=20;" parent="sF2VQWqcSzlpj-m-mOAS-1" vertex="1">
          <mxGeometry x="-110" y="-60" width="300" height="140" as="geometry" />
        </mxCell>
        <mxCell id="sF2VQWqcSzlpj-m-mOAS-102" style="edgeStyle=orthogonalEdgeStyle;rounded=0;orthogonalLoop=1;jettySize=auto;html=1;fontSize=21;endArrow=none;endFill=0;dashed=1;" parent="sF2VQWqcSzlpj-m-mOAS-1" source="sF2VQWqcSzlpj-m-mOAS-53" target="sF2VQWqcSzlpj-m-mOAS-63" edge="1">
          <mxGeometry relative="1" as="geometry">
            <Array as="points">
              <mxPoint x="390" y="630" />
              <mxPoint x="390" y="1175" />
            </Array>
          </mxGeometry>
        </mxCell>
        <mxCell id="sF2VQWqcSzlpj-m-mOAS-53" value="Summary.data" style="shape=note;whiteSpace=wrap;html=1;backgroundOutline=1;darkOpacity=0.05;fontSize=19;fillColor=#fff2cc;strokeColor=#d6b656;" parent="sF2VQWqcSzlpj-m-mOAS-1" vertex="1">
          <mxGeometry x="110" y="598" width="210" height="50" as="geometry" />
        </mxCell>
        <mxCell id="sF2VQWqcSzlpj-m-mOAS-54" value="&lt;b style=&quot;font-size: 20px&quot;&gt;&lt;span&gt;CommitB_&lt;/span&gt;&lt;span&gt;CommitC&lt;/span&gt;&lt;/b&gt;" style="shape=note;whiteSpace=wrap;html=1;backgroundOutline=1;darkOpacity=0.05;fontSize=19;fillColor=#dae8fc;strokeColor=#6c8ebf;" parent="sF2VQWqcSzlpj-m-mOAS-1" vertex="1">
          <mxGeometry x="110" y="735.5" width="210" height="30" as="geometry" />
        </mxCell>
        <mxCell id="sF2VQWqcSzlpj-m-mOAS-55" value="&lt;b style=&quot;font-size: 20px&quot;&gt;&lt;span&gt;CommitA_&lt;/span&gt;&lt;span&gt;CommitB&lt;/span&gt;&lt;/b&gt;" style="shape=note;whiteSpace=wrap;html=1;backgroundOutline=1;darkOpacity=0.05;fontSize=19;fillColor=#dae8fc;strokeColor=#6c8ebf;" parent="sF2VQWqcSzlpj-m-mOAS-1" vertex="1">
          <mxGeometry x="110" y="660.5" width="210" height="30" as="geometry" />
        </mxCell>
        <mxCell id="sF2VQWqcSzlpj-m-mOAS-56" value="&lt;b style=&quot;font-size: 20px&quot;&gt;&lt;span&gt;CommitA_&lt;/span&gt;&lt;span&gt;CommitC&lt;/span&gt;&lt;/b&gt;" style="shape=note;whiteSpace=wrap;html=1;backgroundOutline=1;darkOpacity=0.05;fontSize=19;fillColor=#dae8fc;strokeColor=#6c8ebf;" parent="sF2VQWqcSzlpj-m-mOAS-1" vertex="1">
          <mxGeometry x="110" y="700.5" width="210" height="30" as="geometry" />
        </mxCell>
        <mxCell id="sF2VQWqcSzlpj-m-mOAS-57" value="&lt;b style=&quot;font-size: 20px&quot;&gt;&lt;span&gt;Commit1_&lt;/span&gt;&lt;span&gt;ALL&lt;/span&gt;&lt;/b&gt;" style="shape=note;whiteSpace=wrap;html=1;backgroundOutline=1;darkOpacity=0.05;fontSize=19;fillColor=#f8cecc;strokeColor=#b85450;" parent="sF2VQWqcSzlpj-m-mOAS-1" vertex="1">
          <mxGeometry x="110" y="390" width="210" height="20" as="geometry" />
        </mxCell>
        <mxCell id="sF2VQWqcSzlpj-m-mOAS-58" value="&lt;b style=&quot;font-size: 20px&quot;&gt;&lt;span&gt;Commit2_&lt;/span&gt;&lt;span&gt;ALL&lt;/span&gt;&lt;/b&gt;" style="shape=note;whiteSpace=wrap;html=1;backgroundOutline=1;darkOpacity=0.05;fontSize=19;fillColor=#f8cecc;strokeColor=#b85450;" parent="sF2VQWqcSzlpj-m-mOAS-1" vertex="1">
          <mxGeometry x="110" y="420" width="210" height="20" as="geometry" />
        </mxCell>
        <mxCell id="sF2VQWqcSzlpj-m-mOAS-59" value="&lt;b style=&quot;font-size: 20px&quot;&gt;&lt;span&gt;Commit3_&lt;/span&gt;&lt;span&gt;ALL&lt;/span&gt;&lt;/b&gt;" style="shape=note;whiteSpace=wrap;html=1;backgroundOutline=1;darkOpacity=0.05;fontSize=19;fillColor=#f8cecc;strokeColor=#b85450;" parent="sF2VQWqcSzlpj-m-mOAS-1" vertex="1">
          <mxGeometry x="110" y="450" width="210" height="20" as="geometry" />
        </mxCell>
        <mxCell id="sF2VQWqcSzlpj-m-mOAS-60" value="&lt;b style=&quot;font-size: 20px&quot;&gt;&lt;span&gt;CommitA_&lt;/span&gt;&lt;span&gt;ALL&lt;/span&gt;&lt;/b&gt;" style="shape=note;whiteSpace=wrap;html=1;backgroundOutline=1;darkOpacity=0.05;fontSize=19;fillColor=#f8cecc;strokeColor=#b85450;" parent="sF2VQWqcSzlpj-m-mOAS-1" vertex="1">
          <mxGeometry x="110" y="778" width="210" height="20" as="geometry" />
        </mxCell>
        <mxCell id="sF2VQWqcSzlpj-m-mOAS-61" value="&lt;b style=&quot;font-size: 20px&quot;&gt;&lt;span&gt;CommitB_&lt;/span&gt;&lt;span&gt;ALL&lt;/span&gt;&lt;/b&gt;" style="shape=note;whiteSpace=wrap;html=1;backgroundOutline=1;darkOpacity=0.05;fontSize=19;fillColor=#f8cecc;strokeColor=#b85450;" parent="sF2VQWqcSzlpj-m-mOAS-1" vertex="1">
          <mxGeometry x="110" y="808" width="210" height="20" as="geometry" />
        </mxCell>
        <mxCell id="sF2VQWqcSzlpj-m-mOAS-62" value="&lt;b style=&quot;font-size: 20px&quot;&gt;&lt;span&gt;CommitC_&lt;/span&gt;&lt;span&gt;ALL&lt;/span&gt;&lt;/b&gt;" style="shape=note;whiteSpace=wrap;html=1;backgroundOutline=1;darkOpacity=0.05;fontSize=19;fillColor=#f8cecc;strokeColor=#b85450;" parent="sF2VQWqcSzlpj-m-mOAS-1" vertex="1">
          <mxGeometry x="110" y="838" width="210" height="20" as="geometry" />
        </mxCell>
        <mxCell id="sF2VQWqcSzlpj-m-mOAS-63" value="&lt;p&gt;&lt;span style=&quot;font-weight: normal&quot;&gt;&lt;font style=&quot;font-size: 21px&quot;&gt;valid_versions:[&quot;c_a&quot;,&quot;c_b&quot;,&quot;c_c&quot;]&lt;/font&gt;&lt;/span&gt;&lt;/p&gt;&lt;p&gt;&lt;span style=&quot;font-size: 21px&quot;&gt;discard_versions:[&quot;c_d&quot;]&lt;/span&gt;&lt;span style=&quot;font-weight: normal&quot;&gt;&lt;font style=&quot;font-size: 21px&quot;&gt;&lt;br&gt;&lt;/font&gt;&lt;/span&gt;&lt;/p&gt;&lt;p&gt;&lt;span style=&quot;font-size: 21px&quot;&gt;keep_local_versions:4&lt;/span&gt;&lt;span style=&quot;font-size: 21px&quot;&gt;&lt;br&gt;&lt;/span&gt;&lt;/p&gt;&lt;p&gt;&lt;span style=&quot;font-size: 21px&quot;&gt;min_biz_versions:{&lt;/span&gt;&lt;/p&gt;&lt;p&gt;&lt;span style=&quot;font-size: 21px&quot;&gt;&amp;nbsp; &amp;nbsp;&quot;c_c&quot;:{&lt;/span&gt;&lt;/p&gt;&lt;p&gt;&lt;span style=&quot;font-size: 21px&quot;&gt;&amp;nbsp; &amp;nbsp;&lt;/span&gt;&lt;span style=&quot;font-size: 21px&quot;&gt;&amp;nbsp; &#39;biz_a&#39;:c3,&lt;/span&gt;&lt;/p&gt;&lt;p&gt;&lt;span style=&quot;font-size: 21px&quot;&gt;&amp;nbsp; &amp;nbsp; &amp;nbsp; &#39;biz_b&#39;:c100,&lt;/span&gt;&lt;/p&gt;&lt;p&gt;&lt;span style=&quot;font-size: 21px&quot;&gt;&amp;nbsp; &amp;nbsp;}&lt;/span&gt;&lt;/p&gt;&lt;p&gt;}&lt;/p&gt;" style="text;html=1;strokeColor=#d6b656;fillColor=#fff2cc;spacing=5;spacingTop=-20;whiteSpace=wrap;overflow=hidden;rounded=0;fontSize=20;" parent="sF2VQWqcSzlpj-m-mOAS-1" vertex="1">
          <mxGeometry x="190" y="930" width="330" height="430" as="geometry" />
        </mxCell>
        <mxCell id="sF2VQWqcSzlpj-m-mOAS-94" style="edgeStyle=orthogonalEdgeStyle;rounded=0;orthogonalLoop=1;jettySize=auto;html=1;fontSize=21;endArrow=classic;endFill=1;" parent="sF2VQWqcSzlpj-m-mOAS-1" source="sF2VQWqcSzlpj-m-mOAS-64" target="sF2VQWqcSzlpj-m-mOAS-77" edge="1">
          <mxGeometry relative="1" as="geometry">
            <Array as="points">
              <mxPoint x="970" y="268" />
              <mxPoint x="970" y="470" />
              <mxPoint x="750" y="470" />
            </Array>
          </mxGeometry>
        </mxCell>
        <mxCell id="sF2VQWqcSzlpj-m-mOAS-64" value="" style="rounded=1;whiteSpace=wrap;html=1;fontSize=21;strokeColor=default;fillColor=default;gradientColor=none;" parent="sF2VQWqcSzlpj-m-mOAS-1" vertex="1">
          <mxGeometry x="490" y="190" width="460" height="122.5" as="geometry" />
        </mxCell>
        <mxCell id="sF2VQWqcSzlpj-m-mOAS-67" value="c1" style="ellipse;whiteSpace=wrap;html=1;aspect=fixed;fontSize=21;strokeColor=default;fillColor=default;gradientColor=none;" parent="sF2VQWqcSzlpj-m-mOAS-1" vertex="1">
          <mxGeometry x="510" y="227.5" width="80" height="80" as="geometry" />
        </mxCell>
        <mxCell id="sF2VQWqcSzlpj-m-mOAS-68" value="&lt;span&gt;c2&lt;/span&gt;" style="ellipse;whiteSpace=wrap;html=1;aspect=fixed;fontSize=21;strokeColor=default;fillColor=default;gradientColor=none;" parent="sF2VQWqcSzlpj-m-mOAS-1" vertex="1">
          <mxGeometry x="610" y="227.5" width="80" height="80" as="geometry" />
        </mxCell>
        <mxCell id="sF2VQWqcSzlpj-m-mOAS-69" value="&lt;span&gt;c3&lt;/span&gt;" style="ellipse;whiteSpace=wrap;html=1;aspect=fixed;fontSize=21;strokeColor=default;fillColor=default;gradientColor=none;" parent="sF2VQWqcSzlpj-m-mOAS-1" vertex="1">
          <mxGeometry x="710" y="227.5" width="80" height="80" as="geometry" />
        </mxCell>
        <mxCell id="sF2VQWqcSzlpj-m-mOAS-70" value="&lt;span&gt;c4&lt;/span&gt;" style="ellipse;whiteSpace=wrap;html=1;aspect=fixed;fontSize=21;strokeColor=default;fillColor=default;gradientColor=none;" parent="sF2VQWqcSzlpj-m-mOAS-1" vertex="1">
          <mxGeometry x="820" y="227.5" width="80" height="80" as="geometry" />
        </mxCell>
        <mxCell id="sF2VQWqcSzlpj-m-mOAS-95" style="edgeStyle=orthogonalEdgeStyle;rounded=0;orthogonalLoop=1;jettySize=auto;html=1;fontSize=21;endArrow=classic;endFill=1;" parent="sF2VQWqcSzlpj-m-mOAS-1" source="sF2VQWqcSzlpj-m-mOAS-72" target="sF2VQWqcSzlpj-m-mOAS-77" edge="1">
          <mxGeometry relative="1" as="geometry">
            <Array as="points">
              <mxPoint x="700" y="460" />
              <mxPoint x="700" y="460" />
            </Array>
          </mxGeometry>
        </mxCell>
        <mxCell id="sF2VQWqcSzlpj-m-mOAS-72" value="" style="rounded=1;whiteSpace=wrap;html=1;fontSize=21;strokeColor=#666666;fillColor=#f5f5f5;fontColor=#333333;" parent="sF2VQWqcSzlpj-m-mOAS-1" vertex="1">
          <mxGeometry x="490" y="320" width="460" height="127.5" as="geometry" />
        </mxCell>
        <mxCell id="sF2VQWqcSzlpj-m-mOAS-73" value="c_a" style="ellipse;whiteSpace=wrap;html=1;aspect=fixed;fontSize=21;strokeColor=default;fillColor=default;gradientColor=none;" parent="sF2VQWqcSzlpj-m-mOAS-1" vertex="1">
          <mxGeometry x="510" y="362.5" width="80" height="80" as="geometry" />
        </mxCell>
        <mxCell id="sF2VQWqcSzlpj-m-mOAS-74" value="&lt;span&gt;c_b&lt;/span&gt;" style="ellipse;whiteSpace=wrap;html=1;aspect=fixed;fontSize=21;strokeColor=default;fillColor=default;gradientColor=none;" parent="sF2VQWqcSzlpj-m-mOAS-1" vertex="1">
          <mxGeometry x="610" y="362.5" width="80" height="80" as="geometry" />
        </mxCell>
        <mxCell id="sF2VQWqcSzlpj-m-mOAS-75" value="&lt;span&gt;c_c&lt;/span&gt;" style="ellipse;whiteSpace=wrap;html=1;aspect=fixed;fontSize=21;strokeColor=default;fillColor=default;gradientColor=none;" parent="sF2VQWqcSzlpj-m-mOAS-1" vertex="1">
          <mxGeometry x="710" y="362.5" width="80" height="80" as="geometry" />
        </mxCell>
        <mxCell id="sF2VQWqcSzlpj-m-mOAS-76" value="&lt;span&gt;c_d&lt;/span&gt;" style="ellipse;whiteSpace=wrap;html=1;aspect=fixed;fontSize=21;strokeColor=default;fillColor=default;gradientColor=none;" parent="sF2VQWqcSzlpj-m-mOAS-1" vertex="1">
          <mxGeometry x="820" y="362.5" width="80" height="80" as="geometry" />
        </mxCell>
        <mxCell id="sF2VQWqcSzlpj-m-mOAS-77" value="" style="rounded=1;whiteSpace=wrap;html=1;fontSize=21;" parent="sF2VQWqcSzlpj-m-mOAS-1" vertex="1">
          <mxGeometry x="500" y="500" width="450" height="310" as="geometry" />
        </mxCell>
        <mxCell id="sF2VQWqcSzlpj-m-mOAS-78" value="" style="rounded=1;whiteSpace=wrap;html=1;fontSize=21;strokeColor=default;fillColor=default;gradientColor=none;" parent="sF2VQWqcSzlpj-m-mOAS-1" vertex="1">
          <mxGeometry x="577" y="570" width="120" height="220" as="geometry" />
        </mxCell>
        <mxCell id="sF2VQWqcSzlpj-m-mOAS-79" value="&lt;span&gt;c4&lt;/span&gt;" style="ellipse;whiteSpace=wrap;html=1;aspect=fixed;fontSize=21;strokeColor=default;fillColor=default;gradientColor=none;" parent="sF2VQWqcSzlpj-m-mOAS-1" vertex="1">
          <mxGeometry x="595" y="610" width="80" height="80" as="geometry" />
        </mxCell>
        <mxCell id="sF2VQWqcSzlpj-m-mOAS-80" value="&lt;span&gt;c_d&lt;/span&gt;" style="ellipse;whiteSpace=wrap;html=1;aspect=fixed;fontSize=21;strokeColor=default;fillColor=default;gradientColor=none;" parent="sF2VQWqcSzlpj-m-mOAS-1" vertex="1">
          <mxGeometry x="595" y="700" width="80" height="80" as="geometry" />
        </mxCell>
        <mxCell id="sF2VQWqcSzlpj-m-mOAS-81" value="" style="rounded=1;whiteSpace=wrap;html=1;fontSize=21;strokeColor=default;fillColor=default;gradientColor=none;" parent="sF2VQWqcSzlpj-m-mOAS-1" vertex="1">
          <mxGeometry x="747" y="570" width="120" height="220" as="geometry" />
        </mxCell>
        <mxCell id="sF2VQWqcSzlpj-m-mOAS-82" value="&lt;span&gt;c3&lt;/span&gt;" style="ellipse;whiteSpace=wrap;html=1;aspect=fixed;fontSize=21;strokeColor=default;fillColor=default;gradientColor=none;" parent="sF2VQWqcSzlpj-m-mOAS-1" vertex="1">
          <mxGeometry x="765" y="610" width="80" height="80" as="geometry" />
        </mxCell>
        <mxCell id="sF2VQWqcSzlpj-m-mOAS-83" value="&lt;span&gt;c_d&lt;/span&gt;" style="ellipse;whiteSpace=wrap;html=1;aspect=fixed;fontSize=21;strokeColor=default;fillColor=default;gradientColor=none;" parent="sF2VQWqcSzlpj-m-mOAS-1" vertex="1">
          <mxGeometry x="765" y="700" width="80" height="80" as="geometry" />
        </mxCell>
        <mxCell id="sF2VQWqcSzlpj-m-mOAS-84" value="&lt;b&gt;端侧&lt;/b&gt;" style="text;html=1;strokeColor=none;fillColor=none;align=center;verticalAlign=middle;whiteSpace=wrap;rounded=0;fontSize=21;" parent="sF2VQWqcSzlpj-m-mOAS-1" vertex="1">
          <mxGeometry x="650" y="160" width="60" height="30" as="geometry" />
        </mxCell>
        <mxCell id="sF2VQWqcSzlpj-m-mOAS-85" value="&lt;b&gt;云控&lt;/b&gt;" style="text;html=1;strokeColor=none;fillColor=none;align=center;verticalAlign=middle;whiteSpace=wrap;rounded=0;fontSize=21;" parent="sF2VQWqcSzlpj-m-mOAS-1" vertex="1">
          <mxGeometry x="180" y="170" width="60" height="30" as="geometry" />
        </mxCell>
        <mxCell id="sF2VQWqcSzlpj-m-mOAS-86" value="&lt;b&gt;云控&lt;/b&gt;" style="text;html=1;strokeColor=none;fillColor=none;align=center;verticalAlign=middle;whiteSpace=wrap;rounded=0;fontSize=21;" parent="sF2VQWqcSzlpj-m-mOAS-1" vertex="1">
          <mxGeometry x="180" y="556" width="60" height="30" as="geometry" />
        </mxCell>
        <mxCell id="sF2VQWqcSzlpj-m-mOAS-88" value="发布" style="text;html=1;align=center;verticalAlign=middle;resizable=0;points=[];autosize=1;strokeColor=none;fillColor=none;fontSize=21;" parent="sF2VQWqcSzlpj-m-mOAS-1" vertex="1">
          <mxGeometry x="10" y="635" width="60" height="30" as="geometry" />
        </mxCell>
        <mxCell id="sF2VQWqcSzlpj-m-mOAS-89" style="edgeStyle=orthogonalEdgeStyle;rounded=0;orthogonalLoop=1;jettySize=auto;html=1;fontSize=21;endArrow=classic;endFill=1;" parent="sF2VQWqcSzlpj-m-mOAS-1" source="sF2VQWqcSzlpj-m-mOAS-29" target="sF2VQWqcSzlpj-m-mOAS-4" edge="1">
          <mxGeometry relative="1" as="geometry">
            <Array as="points">
              <mxPoint x="10" y="320" />
              <mxPoint x="10" y="320" />
            </Array>
          </mxGeometry>
        </mxCell>
        <mxCell id="sF2VQWqcSzlpj-m-mOAS-91" value="发布" style="text;html=1;align=center;verticalAlign=middle;resizable=0;points=[];autosize=1;strokeColor=none;fillColor=none;fontSize=21;" parent="sF2VQWqcSzlpj-m-mOAS-1" vertex="1">
          <mxGeometry x="10" y="282.5" width="60" height="30" as="geometry" />
        </mxCell>
        <mxCell id="sF2VQWqcSzlpj-m-mOAS-92" style="edgeStyle=orthogonalEdgeStyle;rounded=0;orthogonalLoop=1;jettySize=auto;html=1;fontSize=21;endArrow=classic;endFill=1;" parent="sF2VQWqcSzlpj-m-mOAS-1" source="sF2VQWqcSzlpj-m-mOAS-4" target="sF2VQWqcSzlpj-m-mOAS-64" edge="1">
          <mxGeometry relative="1" as="geometry">
            <Array as="points">
              <mxPoint x="400" y="251" />
              <mxPoint x="400" y="251" />
            </Array>
          </mxGeometry>
        </mxCell>
        <mxCell id="sF2VQWqcSzlpj-m-mOAS-96" value="COMMON release log" style="text;html=1;strokeColor=none;fillColor=none;align=center;verticalAlign=middle;whiteSpace=wrap;rounded=0;fontSize=21;" parent="sF2VQWqcSzlpj-m-mOAS-1" vertex="1">
          <mxGeometry x="617" y="320" width="210" height="30" as="geometry" />
        </mxCell>
        <mxCell id="sF2VQWqcSzlpj-m-mOAS-98" value="BIZ_1 release log" style="text;html=1;strokeColor=none;fillColor=none;align=center;verticalAlign=middle;whiteSpace=wrap;rounded=0;fontSize=21;" parent="sF2VQWqcSzlpj-m-mOAS-1" vertex="1">
          <mxGeometry x="612" y="197.5" width="210" height="30" as="geometry" />
        </mxCell>
        <mxCell id="sF2VQWqcSzlpj-m-mOAS-99" value="Merge realease log" style="text;html=1;strokeColor=none;fillColor=none;align=center;verticalAlign=middle;whiteSpace=wrap;rounded=0;fontSize=21;" parent="sF2VQWqcSzlpj-m-mOAS-1" vertex="1">
          <mxGeometry x="590" y="510" width="210" height="30" as="geometry" />
        </mxCell>
        <mxCell id="sF2VQWqcSzlpj-m-mOAS-100" value="V0" style="text;html=1;strokeColor=none;fillColor=none;align=center;verticalAlign=middle;whiteSpace=wrap;rounded=0;fontSize=21;" parent="sF2VQWqcSzlpj-m-mOAS-1" vertex="1">
          <mxGeometry x="605" y="575" width="60" height="30" as="geometry" />
        </mxCell>
        <mxCell id="sF2VQWqcSzlpj-m-mOAS-101" value="V1" style="text;html=1;strokeColor=none;fillColor=none;align=center;verticalAlign=middle;whiteSpace=wrap;rounded=0;fontSize=21;" parent="sF2VQWqcSzlpj-m-mOAS-1" vertex="1">
          <mxGeometry x="767" y="575" width="60" height="30" as="geometry" />
        </mxCell>
        <mxCell id="sF2VQWqcSzlpj-m-mOAS-104" style="edgeStyle=orthogonalEdgeStyle;rounded=0;orthogonalLoop=1;jettySize=auto;html=1;fontSize=21;endArrow=classic;endFill=1;" parent="sF2VQWqcSzlpj-m-mOAS-1" source="sF2VQWqcSzlpj-m-mOAS-103" target="sF2VQWqcSzlpj-m-mOAS-72" edge="1">
          <mxGeometry relative="1" as="geometry">
            <Array as="points">
              <mxPoint x="1030" y="384" />
              <mxPoint x="1030" y="384" />
            </Array>
          </mxGeometry>
        </mxCell>
        <mxCell id="sF2VQWqcSzlpj-m-mOAS-103" value="ApkAsset" style="shape=note;whiteSpace=wrap;html=1;backgroundOutline=1;darkOpacity=0.05;fontSize=21;strokeColor=#666666;fillColor=#f5f5f5;fontColor=#333333;" parent="sF2VQWqcSzlpj-m-mOAS-1" vertex="1">
          <mxGeometry x="1060" y="197.5" width="90" height="262.5" as="geometry" />
        </mxCell>
        <mxCell id="sF2VQWqcSzlpj-m-mOAS-105" value="" style="rounded=1;whiteSpace=wrap;html=1;" parent="sF2VQWqcSzlpj-m-mOAS-1" vertex="1">
          <mxGeometry x="230" y="-530" width="470" height="370" as="geometry" />
        </mxCell>
        <mxCell id="sF2VQWqcSzlpj-m-mOAS-106" value="" style="rounded=1;whiteSpace=wrap;html=1;fillColor=#dae8fc;strokeColor=#6c8ebf;" parent="sF2VQWqcSzlpj-m-mOAS-1" vertex="1">
          <mxGeometry x="290" y="-520" width="340" height="100" as="geometry" />
        </mxCell>
        <mxCell id="sF2VQWqcSzlpj-m-mOAS-107" value="" style="rounded=1;whiteSpace=wrap;html=1;fillColor=#dae8fc;strokeColor=#6c8ebf;" parent="sF2VQWqcSzlpj-m-mOAS-1" vertex="1">
          <mxGeometry x="290" y="-400" width="340" height="100" as="geometry" />
        </mxCell>
        <mxCell id="sF2VQWqcSzlpj-m-mOAS-108" value="" style="rounded=1;whiteSpace=wrap;html=1;fillColor=#f8cecc;strokeColor=#b85450;" parent="sF2VQWqcSzlpj-m-mOAS-1" vertex="1">
          <mxGeometry x="290" y="-275" width="340" height="100" as="geometry" />
        </mxCell>
        <mxCell id="sF2VQWqcSzlpj-m-mOAS-109" value="BIZ_A" style="text;html=1;strokeColor=none;fillColor=none;align=center;verticalAlign=middle;whiteSpace=wrap;rounded=0;" parent="sF2VQWqcSzlpj-m-mOAS-1" vertex="1">
          <mxGeometry x="410" y="-520" width="60" height="30" as="geometry" />
        </mxCell>
        <mxCell id="sF2VQWqcSzlpj-m-mOAS-110" value="BIZ_B" style="text;html=1;strokeColor=none;fillColor=none;align=center;verticalAlign=middle;whiteSpace=wrap;rounded=0;" parent="sF2VQWqcSzlpj-m-mOAS-1" vertex="1">
          <mxGeometry x="410" y="-400" width="60" height="30" as="geometry" />
        </mxCell>
        <mxCell id="sF2VQWqcSzlpj-m-mOAS-115" value="Common" style="text;html=1;strokeColor=none;fillColor=none;align=center;verticalAlign=middle;whiteSpace=wrap;rounded=0;" parent="sF2VQWqcSzlpj-m-mOAS-1" vertex="1">
          <mxGeometry x="410" y="-275" width="60" height="30" as="geometry" />
        </mxCell>
        <mxCell id="sF2VQWqcSzlpj-m-mOAS-116" value="ApkAsset" style="shape=note;whiteSpace=wrap;html=1;backgroundOutline=1;darkOpacity=0.05;fontSize=21;strokeColor=#666666;fillColor=#f5f5f5;fontColor=#333333;" parent="sF2VQWqcSzlpj-m-mOAS-1" vertex="1">
          <mxGeometry x="1620" y="197.5" width="90" height="262.5" as="geometry" />
        </mxCell>
      </root>
    </mxGraphModel>
  </diagram>
  <diagram name="简单版本" id="1qN-FSRf3KsbxqkMv7HG">
    <mxGraphModel dx="2501" dy="2053" grid="1" gridSize="10" guides="1" tooltips="1" connect="1" arrows="1" fold="1" page="1" pageScale="1" pageWidth="827" pageHeight="1169" math="0" shadow="0">
      <root>
        <mxCell id="HmtUBin2OTczEG9LACiG-0" />
        <mxCell id="HmtUBin2OTczEG9LACiG-1" parent="HmtUBin2OTczEG9LACiG-0" />
        <mxCell id="HmtUBin2OTczEG9LACiG-2" style="edgeStyle=orthogonalEdgeStyle;rounded=0;orthogonalLoop=1;jettySize=auto;html=1;exitX=0.5;exitY=0.5;exitDx=0;exitDy=0;exitPerimeter=0;" parent="HmtUBin2OTczEG9LACiG-1" source="HmtUBin2OTczEG9LACiG-3" target="HmtUBin2OTczEG9LACiG-4" edge="1">
          <mxGeometry relative="1" as="geometry">
            <mxPoint x="-350" y="487" as="sourcePoint" />
            <Array as="points">
              <mxPoint x="-395" y="497" />
            </Array>
          </mxGeometry>
        </mxCell>
        <mxCell id="HmtUBin2OTczEG9LACiG-3" value="Actor" style="shape=umlActor;verticalLabelPosition=bottom;verticalAlign=top;html=1;outlineConnect=0;" parent="HmtUBin2OTczEG9LACiG-1" vertex="1">
          <mxGeometry x="-410" y="450" width="30" height="60" as="geometry" />
        </mxCell>
        <mxCell id="HmtUBin2OTczEG9LACiG-4" value="" style="rounded=1;whiteSpace=wrap;html=1;" parent="HmtUBin2OTczEG9LACiG-1" vertex="1">
          <mxGeometry x="-270" y="160" width="280" height="700" as="geometry" />
        </mxCell>
        <mxCell id="HmtUBin2OTczEG9LACiG-5" value="" style="rounded=1;whiteSpace=wrap;html=1;" parent="HmtUBin2OTczEG9LACiG-1" vertex="1">
          <mxGeometry x="80" y="160" width="290" height="700" as="geometry" />
        </mxCell>
        <mxCell id="HmtUBin2OTczEG9LACiG-6" value="" style="rounded=1;whiteSpace=wrap;html=1;" parent="HmtUBin2OTczEG9LACiG-1" vertex="1">
          <mxGeometry x="440" y="157.5" width="760" height="692.5" as="geometry" />
        </mxCell>
        <mxCell id="HmtUBin2OTczEG9LACiG-20" value="" style="rounded=1;whiteSpace=wrap;html=1;" parent="HmtUBin2OTczEG9LACiG-1" vertex="1">
          <mxGeometry x="-240" y="207.5" width="220" height="632.5" as="geometry" />
        </mxCell>
        <mxCell id="HmtUBin2OTczEG9LACiG-21" style="edgeStyle=orthogonalEdgeStyle;rounded=0;orthogonalLoop=1;jettySize=auto;html=1;fontSize=21;endArrow=classic;endFill=1;" parent="HmtUBin2OTczEG9LACiG-1" edge="1">
          <mxGeometry relative="1" as="geometry">
            <Array as="points">
              <mxPoint y="685" />
              <mxPoint y="685" />
            </Array>
            <mxPoint x="-20" y="684.9411764705883" as="sourcePoint" />
            <mxPoint x="80" y="684.9411764705883" as="targetPoint" />
          </mxGeometry>
        </mxCell>
        <mxCell id="HmtUBin2OTczEG9LACiG-23" value="&lt;font style=&quot;font-size: 14px;&quot;&gt;Commit1（release1.2.10）&lt;/font&gt;" style="rounded=1;whiteSpace=wrap;html=1;" parent="HmtUBin2OTczEG9LACiG-1" vertex="1">
          <mxGeometry x="-210" y="226.25" width="160" height="50" as="geometry" />
        </mxCell>
        <mxCell id="HmtUBin2OTczEG9LACiG-24" value="&lt;span style=&quot;font-size: 14px;&quot;&gt;Commit2（release1.2.10）&lt;/span&gt;" style="rounded=1;whiteSpace=wrap;html=1;" parent="HmtUBin2OTczEG9LACiG-1" vertex="1">
          <mxGeometry x="-210" y="292.5" width="160" height="50" as="geometry" />
        </mxCell>
        <mxCell id="HmtUBin2OTczEG9LACiG-25" value="&lt;br&gt;&lt;span style=&quot;color: rgb(0, 0, 0); font-family: Helvetica; font-size: 14px; font-style: normal; font-variant-ligatures: normal; font-variant-caps: normal; font-weight: 400; letter-spacing: normal; orphans: 2; text-align: center; text-indent: 0px; text-transform: none; white-space: normal; widows: 2; word-spacing: 0px; -webkit-text-stroke-width: 0px; background-color: rgb(251, 251, 251); text-decoration-thickness: initial; text-decoration-style: initial; text-decoration-color: initial; display: inline !important; float: none;&quot;&gt;Commit3（release1.2.10）&lt;/span&gt;&lt;div&gt;&lt;br&gt;&lt;/div&gt;" style="rounded=1;whiteSpace=wrap;html=1;" parent="HmtUBin2OTczEG9LACiG-1" vertex="1">
          <mxGeometry x="-210" y="362.5" width="160" height="50" as="geometry" />
        </mxCell>
        <mxCell id="HmtUBin2OTczEG9LACiG-26" value="&lt;br&gt;&lt;span style=&quot;color: rgb(0, 0, 0); font-family: Helvetica; font-size: 14px; font-style: normal; font-variant-ligatures: normal; font-variant-caps: normal; font-weight: 400; letter-spacing: normal; orphans: 2; text-align: center; text-indent: 0px; text-transform: none; white-space: normal; widows: 2; word-spacing: 0px; -webkit-text-stroke-width: 0px; background-color: rgb(251, 251, 251); text-decoration-thickness: initial; text-decoration-style: initial; text-decoration-color: initial; display: inline !important; float: none;&quot;&gt;Commit4（release1.2.11）&lt;/span&gt;&lt;div&gt;&lt;br&gt;&lt;/div&gt;" style="rounded=1;whiteSpace=wrap;html=1;" parent="HmtUBin2OTczEG9LACiG-1" vertex="1">
          <mxGeometry x="-210" y="440" width="160" height="50" as="geometry" />
        </mxCell>
        <mxCell id="HmtUBin2OTczEG9LACiG-27" value="&lt;span style=&quot;font-size: 14px;&quot;&gt;Commit5（release1.2.11）&lt;/span&gt;" style="rounded=1;whiteSpace=wrap;html=1;" parent="HmtUBin2OTczEG9LACiG-1" vertex="1">
          <mxGeometry x="-210" y="510" width="160" height="50" as="geometry" />
        </mxCell>
        <mxCell id="HmtUBin2OTczEG9LACiG-28" value="&lt;span style=&quot;font-size: 14px;&quot;&gt;Commit6（release1.2.11）&lt;/span&gt;" style="rounded=1;whiteSpace=wrap;html=1;" parent="HmtUBin2OTczEG9LACiG-1" vertex="1">
          <mxGeometry x="-210" y="583" width="160" height="50" as="geometry" />
        </mxCell>
        <mxCell id="HmtUBin2OTczEG9LACiG-29" value="&lt;b&gt;&lt;font style=&quot;font-size: 19px&quot;&gt;GIT&lt;/font&gt;&lt;/b&gt;" style="text;html=1;strokeColor=none;fillColor=none;align=center;verticalAlign=middle;whiteSpace=wrap;rounded=0;" parent="HmtUBin2OTczEG9LACiG-1" vertex="1">
          <mxGeometry x="-170" y="170" width="60" height="30" as="geometry" />
        </mxCell>
        <mxCell id="HmtUBin2OTczEG9LACiG-32" style="edgeStyle=orthogonalEdgeStyle;rounded=0;orthogonalLoop=1;jettySize=auto;html=1;fontSize=21;dashed=1;dashPattern=1 2;endArrow=none;endFill=0;" parent="HmtUBin2OTczEG9LACiG-1" source="HmtUBin2OTczEG9LACiG-33" target="HmtUBin2OTczEG9LACiG-37" edge="1">
          <mxGeometry relative="1" as="geometry">
            <Array as="points">
              <mxPoint x="45" y="235" />
            </Array>
          </mxGeometry>
        </mxCell>
        <mxCell id="HmtUBin2OTczEG9LACiG-33" value="Summary.data" style="shape=note;whiteSpace=wrap;html=1;backgroundOutline=1;darkOpacity=0.05;fontSize=19;fillColor=#fff2cc;strokeColor=#d6b656;" parent="HmtUBin2OTczEG9LACiG-1" vertex="1">
          <mxGeometry x="110" y="210" width="210" height="50" as="geometry" />
        </mxCell>
        <mxCell id="HmtUBin2OTczEG9LACiG-34" value="&lt;b style=&quot;font-size: 20px&quot;&gt;&lt;span&gt;Commit1_&lt;/span&gt;&lt;span&gt;Commit3&lt;/span&gt;&lt;/b&gt;" style="shape=note;whiteSpace=wrap;html=1;backgroundOutline=1;darkOpacity=0.05;fontSize=19;fillColor=#dae8fc;strokeColor=#6c8ebf;" parent="HmtUBin2OTczEG9LACiG-1" vertex="1">
          <mxGeometry x="110" y="368.75" width="210" height="30" as="geometry" />
        </mxCell>
        <mxCell id="HmtUBin2OTczEG9LACiG-36" value="&lt;b style=&quot;font-size: 20px&quot;&gt;&lt;span&gt;Commit1_&lt;/span&gt;&lt;span&gt;Commit2&lt;/span&gt;&lt;/b&gt;" style="shape=note;whiteSpace=wrap;html=1;backgroundOutline=1;darkOpacity=0.05;fontSize=19;fillColor=#dae8fc;strokeColor=#6c8ebf;" parent="HmtUBin2OTczEG9LACiG-1" vertex="1">
          <mxGeometry x="110" y="312.5" width="210" height="30" as="geometry" />
        </mxCell>
        <mxCell id="HmtUBin2OTczEG9LACiG-37" value="&lt;p&gt;&lt;span style=&quot;font-size: 21px;&quot;&gt;open_inc_update: true&lt;/span&gt;&lt;/p&gt;&lt;p&gt;&lt;span style=&quot;font-size: 21px;&quot;&gt;gray_ratio:0.1&lt;/span&gt;&lt;/p&gt;&lt;p&gt;&lt;span style=&quot;font-weight: normal&quot;&gt;&lt;font style=&quot;font-size: 21px&quot;&gt;valid_versions:[&quot;&lt;/font&gt;&lt;/span&gt;&lt;span style=&quot;font-size: 21px;&quot;&gt;commit1&lt;/span&gt;&lt;span style=&quot;font-weight: normal&quot;&gt;&lt;font style=&quot;font-size: 21px&quot;&gt;&quot;,&quot;&lt;/font&gt;&lt;/span&gt;&lt;span style=&quot;font-size: 21px; background-color: initial;&quot;&gt;commit1_commit&lt;/span&gt;&lt;span style=&quot;background-color: initial; font-size: 21px;&quot;&gt;2&lt;/span&gt;&lt;span style=&quot;background-color: initial;&quot;&gt;&lt;font style=&quot;font-size: 21px&quot;&gt;&quot;,&quot;&lt;/font&gt;&lt;/span&gt;&lt;span style=&quot;background-color: initial; --tw-border-spacing-x: 0; --tw-border-spacing-y: 0; --tw-translate-x: 0; --tw-translate-y: 0; --tw-rotate: 0; --tw-skew-x: 0; --tw-skew-y: 0; --tw-scale-x: 1; --tw-scale-y: 1; --tw-pan-x: ; --tw-pan-y: ; --tw-pinch-zoom: ; --tw-scroll-snap-strictness: proximity; --tw-ordinal: ; --tw-slashed-zero: ; --tw-numeric-figure: ; --tw-numeric-spacing: ; --tw-numeric-fraction: ; --tw-ring-inset: ; --tw-ring-offset-width: 0px; --tw-ring-offset-color: #fff; --tw-ring-color: rgb(59 130 246 / 0.5); --tw-ring-offset-shadow: 0 0 #0000; --tw-ring-shadow: 0 0 #0000; --tw-shadow: 0 0 #0000; --tw-shadow-colored: 0 0 #0000; --tw-blur: ; --tw-brightness: ; --tw-contrast: ; --tw-grayscale: ; --tw-hue-rotate: ; --tw-invert: ; --tw-saturate: ; --tw-sepia: ; --tw-drop-shadow: ; --tw-backdrop-blur: ; --tw-backdrop-brightness: ; --tw-backdrop-contrast: ; --tw-backdrop-grayscale: ; --tw-backdrop-hue-rotate: ; --tw-backdrop-invert: ; --tw-backdrop-opacity: ; --tw-backdrop-saturate: ; --tw-backdrop-sepia: ; font-size: 21px;&quot;&gt;commit1_commit3&lt;/span&gt;&lt;span style=&quot;background-color: initial;&quot;&gt;&lt;font style=&quot;font-size: 21px&quot;&gt;&quot;&lt;/font&gt;&lt;/span&gt;&lt;span style=&quot;background-color: initial; --tw-border-spacing-x: 0; --tw-border-spacing-y: 0; --tw-translate-x: 0; --tw-translate-y: 0; --tw-rotate: 0; --tw-skew-x: 0; --tw-skew-y: 0; --tw-scale-x: 1; --tw-scale-y: 1; --tw-pan-x: ; --tw-pan-y: ; --tw-pinch-zoom: ; --tw-scroll-snap-strictness: proximity; --tw-ordinal: ; --tw-slashed-zero: ; --tw-numeric-figure: ; --tw-numeric-spacing: ; --tw-numeric-fraction: ; --tw-ring-inset: ; --tw-ring-offset-width: 0px; --tw-ring-offset-color: #fff; --tw-ring-color: rgb(59 130 246 / 0.5); --tw-ring-offset-shadow: 0 0 #0000; --tw-ring-shadow: 0 0 #0000; --tw-shadow: 0 0 #0000; --tw-shadow-colored: 0 0 #0000; --tw-blur: ; --tw-brightness: ; --tw-contrast: ; --tw-grayscale: ; --tw-hue-rotate: ; --tw-invert: ; --tw-saturate: ; --tw-sepia: ; --tw-drop-shadow: ; --tw-backdrop-blur: ; --tw-backdrop-brightness: ; --tw-backdrop-contrast: ; --tw-backdrop-grayscale: ; --tw-backdrop-hue-rotate: ; --tw-backdrop-invert: ; --tw-backdrop-opacity: ; --tw-backdrop-saturate: ; --tw-backdrop-sepia: ;&quot;&gt;&lt;font style=&quot;--tw-border-spacing-x: 0; --tw-border-spacing-y: 0; --tw-translate-x: 0; --tw-translate-y: 0; --tw-rotate: 0; --tw-skew-x: 0; --tw-skew-y: 0; --tw-scale-x: 1; --tw-scale-y: 1; --tw-pan-x: ; --tw-pan-y: ; --tw-pinch-zoom: ; --tw-scroll-snap-strictness: proximity; --tw-ordinal: ; --tw-slashed-zero: ; --tw-numeric-figure: ; --tw-numeric-spacing: ; --tw-numeric-fraction: ; --tw-ring-inset: ; --tw-ring-offset-width: 0px; --tw-ring-offset-color: #fff; --tw-ring-color: rgb(59 130 246 / 0.5); --tw-ring-offset-shadow: 0 0 #0000; --tw-ring-shadow: 0 0 #0000; --tw-shadow: 0 0 #0000; --tw-shadow-colored: 0 0 #0000; --tw-blur: ; --tw-brightness: ; --tw-contrast: ; --tw-grayscale: ; --tw-hue-rotate: ; --tw-invert: ; --tw-saturate: ; --tw-sepia: ; --tw-drop-shadow: ; --tw-backdrop-blur: ; --tw-backdrop-brightness: ; --tw-backdrop-contrast: ; --tw-backdrop-grayscale: ; --tw-backdrop-hue-rotate: ; --tw-backdrop-invert: ; --tw-backdrop-opacity: ; --tw-backdrop-saturate: ; --tw-backdrop-sepia: ; font-size: 21px;&quot;&gt;,&quot;&lt;/font&gt;&lt;/span&gt;&lt;/p&gt;&lt;p&gt;&lt;span style=&quot;background-color: initial; --tw-border-spacing-x: 0; --tw-border-spacing-y: 0; --tw-translate-x: 0; --tw-translate-y: 0; --tw-rotate: 0; --tw-skew-x: 0; --tw-skew-y: 0; --tw-scale-x: 1; --tw-scale-y: 1; --tw-pan-x: ; --tw-pan-y: ; --tw-pinch-zoom: ; --tw-scroll-snap-strictness: proximity; --tw-ordinal: ; --tw-slashed-zero: ; --tw-numeric-figure: ; --tw-numeric-spacing: ; --tw-numeric-fraction: ; --tw-ring-inset: ; --tw-ring-offset-width: 0px; --tw-ring-offset-color: #fff; --tw-ring-color: rgb(59 130 246 / 0.5); --tw-ring-offset-shadow: 0 0 #0000; --tw-ring-shadow: 0 0 #0000; --tw-shadow: 0 0 #0000; --tw-shadow-colored: 0 0 #0000; --tw-blur: ; --tw-brightness: ; --tw-contrast: ; --tw-grayscale: ; --tw-hue-rotate: ; --tw-invert: ; --tw-saturate: ; --tw-sepia: ; --tw-drop-shadow: ; --tw-backdrop-blur: ; --tw-backdrop-brightness: ; --tw-backdrop-contrast: ; --tw-backdrop-grayscale: ; --tw-backdrop-hue-rotate: ; --tw-backdrop-invert: ; --tw-backdrop-opacity: ; --tw-backdrop-saturate: ; --tw-backdrop-sepia: ; font-size: 21px;&quot;&gt;commit4&lt;/span&gt;&lt;span style=&quot;background-color: initial; --tw-border-spacing-x: 0; --tw-border-spacing-y: 0; --tw-translate-x: 0; --tw-translate-y: 0; --tw-rotate: 0; --tw-skew-x: 0; --tw-skew-y: 0; --tw-scale-x: 1; --tw-scale-y: 1; --tw-pan-x: ; --tw-pan-y: ; --tw-pinch-zoom: ; --tw-scroll-snap-strictness: proximity; --tw-ordinal: ; --tw-slashed-zero: ; --tw-numeric-figure: ; --tw-numeric-spacing: ; --tw-numeric-fraction: ; --tw-ring-inset: ; --tw-ring-offset-width: 0px; --tw-ring-offset-color: #fff; --tw-ring-color: rgb(59 130 246 / 0.5); --tw-ring-offset-shadow: 0 0 #0000; --tw-ring-shadow: 0 0 #0000; --tw-shadow: 0 0 #0000; --tw-shadow-colored: 0 0 #0000; --tw-blur: ; --tw-brightness: ; --tw-contrast: ; --tw-grayscale: ; --tw-hue-rotate: ; --tw-invert: ; --tw-saturate: ; --tw-sepia: ; --tw-drop-shadow: ; --tw-backdrop-blur: ; --tw-backdrop-brightness: ; --tw-backdrop-contrast: ; --tw-backdrop-grayscale: ; --tw-backdrop-hue-rotate: ; --tw-backdrop-invert: ; --tw-backdrop-opacity: ; --tw-backdrop-saturate: ; --tw-backdrop-sepia: ;&quot;&gt;&lt;font style=&quot;--tw-border-spacing-x: 0; --tw-border-spacing-y: 0; --tw-translate-x: 0; --tw-translate-y: 0; --tw-rotate: 0; --tw-skew-x: 0; --tw-skew-y: 0; --tw-scale-x: 1; --tw-scale-y: 1; --tw-pan-x: ; --tw-pan-y: ; --tw-pinch-zoom: ; --tw-scroll-snap-strictness: proximity; --tw-ordinal: ; --tw-slashed-zero: ; --tw-numeric-figure: ; --tw-numeric-spacing: ; --tw-numeric-fraction: ; --tw-ring-inset: ; --tw-ring-offset-width: 0px; --tw-ring-offset-color: #fff; --tw-ring-color: rgb(59 130 246 / 0.5); --tw-ring-offset-shadow: 0 0 #0000; --tw-ring-shadow: 0 0 #0000; --tw-shadow: 0 0 #0000; --tw-shadow-colored: 0 0 #0000; --tw-blur: ; --tw-brightness: ; --tw-contrast: ; --tw-grayscale: ; --tw-hue-rotate: ; --tw-invert: ; --tw-saturate: ; --tw-sepia: ; --tw-drop-shadow: ; --tw-backdrop-blur: ; --tw-backdrop-brightness: ; --tw-backdrop-contrast: ; --tw-backdrop-grayscale: ; --tw-backdrop-hue-rotate: ; --tw-backdrop-invert: ; --tw-backdrop-opacity: ; --tw-backdrop-saturate: ; --tw-backdrop-sepia: ; font-size: 21px;&quot;&gt;&quot;&lt;/font&gt;&lt;/span&gt;&lt;span style=&quot;background-color: initial; --tw-border-spacing-x: 0; --tw-border-spacing-y: 0; --tw-translate-x: 0; --tw-translate-y: 0; --tw-rotate: 0; --tw-skew-x: 0; --tw-skew-y: 0; --tw-scale-x: 1; --tw-scale-y: 1; --tw-pan-x: ; --tw-pan-y: ; --tw-pinch-zoom: ; --tw-scroll-snap-strictness: proximity; --tw-ordinal: ; --tw-slashed-zero: ; --tw-numeric-figure: ; --tw-numeric-spacing: ; --tw-numeric-fraction: ; --tw-ring-inset: ; --tw-ring-offset-width: 0px; --tw-ring-offset-color: #fff; --tw-ring-color: rgb(59 130 246 / 0.5); --tw-ring-offset-shadow: 0 0 #0000; --tw-ring-shadow: 0 0 #0000; --tw-shadow: 0 0 #0000; --tw-shadow-colored: 0 0 #0000; --tw-blur: ; --tw-brightness: ; --tw-contrast: ; --tw-grayscale: ; --tw-hue-rotate: ; --tw-invert: ; --tw-saturate: ; --tw-sepia: ; --tw-drop-shadow: ; --tw-backdrop-blur: ; --tw-backdrop-brightness: ; --tw-backdrop-contrast: ; --tw-backdrop-grayscale: ; --tw-backdrop-hue-rotate: ; --tw-backdrop-invert: ; --tw-backdrop-opacity: ; --tw-backdrop-saturate: ; --tw-backdrop-sepia: ;&quot;&gt;&lt;font style=&quot;--tw-border-spacing-x: 0; --tw-border-spacing-y: 0; --tw-translate-x: 0; --tw-translate-y: 0; --tw-rotate: 0; --tw-skew-x: 0; --tw-skew-y: 0; --tw-scale-x: 1; --tw-scale-y: 1; --tw-pan-x: ; --tw-pan-y: ; --tw-pinch-zoom: ; --tw-scroll-snap-strictness: proximity; --tw-ordinal: ; --tw-slashed-zero: ; --tw-numeric-figure: ; --tw-numeric-spacing: ; --tw-numeric-fraction: ; --tw-ring-inset: ; --tw-ring-offset-width: 0px; --tw-ring-offset-color: #fff; --tw-ring-color: rgb(59 130 246 / 0.5); --tw-ring-offset-shadow: 0 0 #0000; --tw-ring-shadow: 0 0 #0000; --tw-shadow: 0 0 #0000; --tw-shadow-colored: 0 0 #0000; --tw-blur: ; --tw-brightness: ; --tw-contrast: ; --tw-grayscale: ; --tw-hue-rotate: ; --tw-invert: ; --tw-saturate: ; --tw-sepia: ; --tw-drop-shadow: ; --tw-backdrop-blur: ; --tw-backdrop-brightness: ; --tw-backdrop-contrast: ; --tw-backdrop-grayscale: ; --tw-backdrop-hue-rotate: ; --tw-backdrop-invert: ; --tw-backdrop-opacity: ; --tw-backdrop-saturate: ; --tw-backdrop-sepia: ; font-size: 21px;&quot;&gt;,&quot;&lt;/font&gt;&lt;/span&gt;&lt;span style=&quot;background-color: initial; --tw-border-spacing-x: 0; --tw-border-spacing-y: 0; --tw-translate-x: 0; --tw-translate-y: 0; --tw-rotate: 0; --tw-skew-x: 0; --tw-skew-y: 0; --tw-scale-x: 1; --tw-scale-y: 1; --tw-pan-x: ; --tw-pan-y: ; --tw-pinch-zoom: ; --tw-scroll-snap-strictness: proximity; --tw-ordinal: ; --tw-slashed-zero: ; --tw-numeric-figure: ; --tw-numeric-spacing: ; --tw-numeric-fraction: ; --tw-ring-inset: ; --tw-ring-offset-width: 0px; --tw-ring-offset-color: #fff; --tw-ring-color: rgb(59 130 246 / 0.5); --tw-ring-offset-shadow: 0 0 #0000; --tw-ring-shadow: 0 0 #0000; --tw-shadow: 0 0 #0000; --tw-shadow-colored: 0 0 #0000; --tw-blur: ; --tw-brightness: ; --tw-contrast: ; --tw-grayscale: ; --tw-hue-rotate: ; --tw-invert: ; --tw-saturate: ; --tw-sepia: ; --tw-drop-shadow: ; --tw-backdrop-blur: ; --tw-backdrop-brightness: ; --tw-backdrop-contrast: ; --tw-backdrop-grayscale: ; --tw-backdrop-hue-rotate: ; --tw-backdrop-invert: ; --tw-backdrop-opacity: ; --tw-backdrop-saturate: ; --tw-backdrop-sepia: ;&quot;&gt;&lt;font style=&quot;--tw-border-spacing-x: 0; --tw-border-spacing-y: 0; --tw-translate-x: 0; --tw-translate-y: 0; --tw-rotate: 0; --tw-skew-x: 0; --tw-skew-y: 0; --tw-scale-x: 1; --tw-scale-y: 1; --tw-pan-x: ; --tw-pan-y: ; --tw-pinch-zoom: ; --tw-scroll-snap-strictness: proximity; --tw-ordinal: ; --tw-slashed-zero: ; --tw-numeric-figure: ; --tw-numeric-spacing: ; --tw-numeric-fraction: ; --tw-ring-inset: ; --tw-ring-offset-width: 0px; --tw-ring-offset-color: #fff; --tw-ring-color: rgb(59 130 246 / 0.5); --tw-ring-offset-shadow: 0 0 #0000; --tw-ring-shadow: 0 0 #0000; --tw-shadow: 0 0 #0000; --tw-shadow-colored: 0 0 #0000; --tw-blur: ; --tw-brightness: ; --tw-contrast: ; --tw-grayscale: ; --tw-hue-rotate: ; --tw-invert: ; --tw-saturate: ; --tw-sepia: ; --tw-drop-shadow: ; --tw-backdrop-blur: ; --tw-backdrop-brightness: ; --tw-backdrop-contrast: ; --tw-backdrop-grayscale: ; --tw-backdrop-hue-rotate: ; --tw-backdrop-invert: ; --tw-backdrop-opacity: ; --tw-backdrop-saturate: ; --tw-backdrop-sepia: ; font-size: 21px;&quot;&gt;commit4_commit5&quot;&lt;/font&gt;&lt;/span&gt;&lt;span style=&quot;background-color: initial; --tw-border-spacing-x: 0; --tw-border-spacing-y: 0; --tw-translate-x: 0; --tw-translate-y: 0; --tw-rotate: 0; --tw-skew-x: 0; --tw-skew-y: 0; --tw-scale-x: 1; --tw-scale-y: 1; --tw-pan-x: ; --tw-pan-y: ; --tw-pinch-zoom: ; --tw-scroll-snap-strictness: proximity; --tw-ordinal: ; --tw-slashed-zero: ; --tw-numeric-figure: ; --tw-numeric-spacing: ; --tw-numeric-fraction: ; --tw-ring-inset: ; --tw-ring-offset-width: 0px; --tw-ring-offset-color: #fff; --tw-ring-color: rgb(59 130 246 / 0.5); --tw-ring-offset-shadow: 0 0 #0000; --tw-ring-shadow: 0 0 #0000; --tw-shadow: 0 0 #0000; --tw-shadow-colored: 0 0 #0000; --tw-blur: ; --tw-brightness: ; --tw-contrast: ; --tw-grayscale: ; --tw-hue-rotate: ; --tw-invert: ; --tw-saturate: ; --tw-sepia: ; --tw-drop-shadow: ; --tw-backdrop-blur: ; --tw-backdrop-brightness: ; --tw-backdrop-contrast: ; --tw-backdrop-grayscale: ; --tw-backdrop-hue-rotate: ; --tw-backdrop-invert: ; --tw-backdrop-opacity: ; --tw-backdrop-saturate: ; --tw-backdrop-sepia: ;&quot;&gt;&lt;font style=&quot;--tw-border-spacing-x: 0; --tw-border-spacing-y: 0; --tw-translate-x: 0; --tw-translate-y: 0; --tw-rotate: 0; --tw-skew-x: 0; --tw-skew-y: 0; --tw-scale-x: 1; --tw-scale-y: 1; --tw-pan-x: ; --tw-pan-y: ; --tw-pinch-zoom: ; --tw-scroll-snap-strictness: proximity; --tw-ordinal: ; --tw-slashed-zero: ; --tw-numeric-figure: ; --tw-numeric-spacing: ; --tw-numeric-fraction: ; --tw-ring-inset: ; --tw-ring-offset-width: 0px; --tw-ring-offset-color: #fff; --tw-ring-color: rgb(59 130 246 / 0.5); --tw-ring-offset-shadow: 0 0 #0000; --tw-ring-shadow: 0 0 #0000; --tw-shadow: 0 0 #0000; --tw-shadow-colored: 0 0 #0000; --tw-blur: ; --tw-brightness: ; --tw-contrast: ; --tw-grayscale: ; --tw-hue-rotate: ; --tw-invert: ; --tw-saturate: ; --tw-sepia: ; --tw-drop-shadow: ; --tw-backdrop-blur: ; --tw-backdrop-brightness: ; --tw-backdrop-contrast: ; --tw-backdrop-grayscale: ; --tw-backdrop-hue-rotate: ; --tw-backdrop-invert: ; --tw-backdrop-opacity: ; --tw-backdrop-saturate: ; --tw-backdrop-sepia: ; font-size: 21px;&quot;&gt;,&quot;&lt;/font&gt;&lt;/span&gt;&lt;span style=&quot;background-color: initial; --tw-border-spacing-x: 0; --tw-border-spacing-y: 0; --tw-translate-x: 0; --tw-translate-y: 0; --tw-rotate: 0; --tw-skew-x: 0; --tw-skew-y: 0; --tw-scale-x: 1; --tw-scale-y: 1; --tw-pan-x: ; --tw-pan-y: ; --tw-pinch-zoom: ; --tw-scroll-snap-strictness: proximity; --tw-ordinal: ; --tw-slashed-zero: ; --tw-numeric-figure: ; --tw-numeric-spacing: ; --tw-numeric-fraction: ; --tw-ring-inset: ; --tw-ring-offset-width: 0px; --tw-ring-offset-color: #fff; --tw-ring-color: rgb(59 130 246 / 0.5); --tw-ring-offset-shadow: 0 0 #0000; --tw-ring-shadow: 0 0 #0000; --tw-shadow: 0 0 #0000; --tw-shadow-colored: 0 0 #0000; --tw-blur: ; --tw-brightness: ; --tw-contrast: ; --tw-grayscale: ; --tw-hue-rotate: ; --tw-invert: ; --tw-saturate: ; --tw-sepia: ; --tw-drop-shadow: ; --tw-backdrop-blur: ; --tw-backdrop-brightness: ; --tw-backdrop-contrast: ; --tw-backdrop-grayscale: ; --tw-backdrop-hue-rotate: ; --tw-backdrop-invert: ; --tw-backdrop-opacity: ; --tw-backdrop-saturate: ; --tw-backdrop-sepia: ;&quot;&gt;&lt;font style=&quot;--tw-border-spacing-x: 0; --tw-border-spacing-y: 0; --tw-translate-x: 0; --tw-translate-y: 0; --tw-rotate: 0; --tw-skew-x: 0; --tw-skew-y: 0; --tw-scale-x: 1; --tw-scale-y: 1; --tw-pan-x: ; --tw-pan-y: ; --tw-pinch-zoom: ; --tw-scroll-snap-strictness: proximity; --tw-ordinal: ; --tw-slashed-zero: ; --tw-numeric-figure: ; --tw-numeric-spacing: ; --tw-numeric-fraction: ; --tw-ring-inset: ; --tw-ring-offset-width: 0px; --tw-ring-offset-color: #fff; --tw-ring-color: rgb(59 130 246 / 0.5); --tw-ring-offset-shadow: 0 0 #0000; --tw-ring-shadow: 0 0 #0000; --tw-shadow: 0 0 #0000; --tw-shadow-colored: 0 0 #0000; --tw-blur: ; --tw-brightness: ; --tw-contrast: ; --tw-grayscale: ; --tw-hue-rotate: ; --tw-invert: ; --tw-saturate: ; --tw-sepia: ; --tw-drop-shadow: ; --tw-backdrop-blur: ; --tw-backdrop-brightness: ; --tw-backdrop-contrast: ; --tw-backdrop-grayscale: ; --tw-backdrop-hue-rotate: ; --tw-backdrop-invert: ; --tw-backdrop-opacity: ; --tw-backdrop-saturate: ; --tw-backdrop-sepia: ; font-size: 21px;&quot;&gt;commit4_commit6&quot;&lt;/font&gt;&lt;/span&gt;&lt;span style=&quot;background-color: initial; --tw-border-spacing-x: 0; --tw-border-spacing-y: 0; --tw-translate-x: 0; --tw-translate-y: 0; --tw-rotate: 0; --tw-skew-x: 0; --tw-skew-y: 0; --tw-scale-x: 1; --tw-scale-y: 1; --tw-pan-x: ; --tw-pan-y: ; --tw-pinch-zoom: ; --tw-scroll-snap-strictness: proximity; --tw-ordinal: ; --tw-slashed-zero: ; --tw-numeric-figure: ; --tw-numeric-spacing: ; --tw-numeric-fraction: ; --tw-ring-inset: ; --tw-ring-offset-width: 0px; --tw-ring-offset-color: #fff; --tw-ring-color: rgb(59 130 246 / 0.5); --tw-ring-offset-shadow: 0 0 #0000; --tw-ring-shadow: 0 0 #0000; --tw-shadow: 0 0 #0000; --tw-shadow-colored: 0 0 #0000; --tw-blur: ; --tw-brightness: ; --tw-contrast: ; --tw-grayscale: ; --tw-hue-rotate: ; --tw-invert: ; --tw-saturate: ; --tw-sepia: ; --tw-drop-shadow: ; --tw-backdrop-blur: ; --tw-backdrop-brightness: ; --tw-backdrop-contrast: ; --tw-backdrop-grayscale: ; --tw-backdrop-hue-rotate: ; --tw-backdrop-invert: ; --tw-backdrop-opacity: ; --tw-backdrop-saturate: ; --tw-backdrop-sepia: ;&quot;&gt;&lt;font style=&quot;--tw-border-spacing-x: 0; --tw-border-spacing-y: 0; --tw-translate-x: 0; --tw-translate-y: 0; --tw-rotate: 0; --tw-skew-x: 0; --tw-skew-y: 0; --tw-scale-x: 1; --tw-scale-y: 1; --tw-pan-x: ; --tw-pan-y: ; --tw-pinch-zoom: ; --tw-scroll-snap-strictness: proximity; --tw-ordinal: ; --tw-slashed-zero: ; --tw-numeric-figure: ; --tw-numeric-spacing: ; --tw-numeric-fraction: ; --tw-ring-inset: ; --tw-ring-offset-width: 0px; --tw-ring-offset-color: #fff; --tw-ring-color: rgb(59 130 246 / 0.5); --tw-ring-offset-shadow: 0 0 #0000; --tw-ring-shadow: 0 0 #0000; --tw-shadow: 0 0 #0000; --tw-shadow-colored: 0 0 #0000; --tw-blur: ; --tw-brightness: ; --tw-contrast: ; --tw-grayscale: ; --tw-hue-rotate: ; --tw-invert: ; --tw-saturate: ; --tw-sepia: ; --tw-drop-shadow: ; --tw-backdrop-blur: ; --tw-backdrop-brightness: ; --tw-backdrop-contrast: ; --tw-backdrop-grayscale: ; --tw-backdrop-hue-rotate: ; --tw-backdrop-invert: ; --tw-backdrop-opacity: ; --tw-backdrop-saturate: ; --tw-backdrop-sepia: ; font-size: 21px;&quot;&gt;,&quot;&lt;/font&gt;&lt;/span&gt;&lt;span style=&quot;background-color: initial; --tw-border-spacing-x: 0; --tw-border-spacing-y: 0; --tw-translate-x: 0; --tw-translate-y: 0; --tw-rotate: 0; --tw-skew-x: 0; --tw-skew-y: 0; --tw-scale-x: 1; --tw-scale-y: 1; --tw-pan-x: ; --tw-pan-y: ; --tw-pinch-zoom: ; --tw-scroll-snap-strictness: proximity; --tw-ordinal: ; --tw-slashed-zero: ; --tw-numeric-figure: ; --tw-numeric-spacing: ; --tw-numeric-fraction: ; --tw-ring-inset: ; --tw-ring-offset-width: 0px; --tw-ring-offset-color: #fff; --tw-ring-color: rgb(59 130 246 / 0.5); --tw-ring-offset-shadow: 0 0 #0000; --tw-ring-shadow: 0 0 #0000; --tw-shadow: 0 0 #0000; --tw-shadow-colored: 0 0 #0000; --tw-blur: ; --tw-brightness: ; --tw-contrast: ; --tw-grayscale: ; --tw-hue-rotate: ; --tw-invert: ; --tw-saturate: ; --tw-sepia: ; --tw-drop-shadow: ; --tw-backdrop-blur: ; --tw-backdrop-brightness: ; --tw-backdrop-contrast: ; --tw-backdrop-grayscale: ; --tw-backdrop-hue-rotate: ; --tw-backdrop-invert: ; --tw-backdrop-opacity: ; --tw-backdrop-saturate: ; --tw-backdrop-sepia: ; font-size: 21px;&quot;&gt;commit4_commit7&quot;&lt;/span&gt;&lt;span style=&quot;background-color: initial; font-size: 21px;&quot;&gt;]&lt;/span&gt;&lt;/p&gt;&lt;p&gt;&lt;span style=&quot;font-weight: normal&quot;&gt;&lt;font style=&quot;font-size: 21px&quot;&gt;discard_versions:[&quot;commit8&quot;]&lt;/font&gt;&lt;/span&gt;&lt;/p&gt;&lt;p&gt;&lt;span style=&quot;font-size: 21px&quot;&gt;keep_local_versions:6&lt;/span&gt;&lt;/p&gt;&lt;p&gt;&lt;br&gt;&lt;/p&gt;&lt;p&gt;&lt;br&gt;&lt;/p&gt;" style="text;html=1;strokeColor=#d6b656;fillColor=#fff2cc;spacing=5;spacingTop=-20;whiteSpace=wrap;overflow=hidden;rounded=0;fontSize=20;" parent="HmtUBin2OTczEG9LACiG-1" vertex="1">
          <mxGeometry x="-250" y="-170" width="700" height="270" as="geometry" />
        </mxCell>
        <mxCell id="HmtUBin2OTczEG9LACiG-43" value="&lt;b style=&quot;font-size: 20px&quot;&gt;&lt;span&gt;Commit1_&lt;/span&gt;&lt;span&gt;ALL&lt;/span&gt;&lt;/b&gt;" style="shape=note;whiteSpace=wrap;html=1;backgroundOutline=1;darkOpacity=0.05;fontSize=19;fillColor=#f8cecc;strokeColor=#b85450;" parent="HmtUBin2OTczEG9LACiG-1" vertex="1">
          <mxGeometry x="110" y="277.5" width="210" height="20" as="geometry" />
        </mxCell>
        <mxCell id="HmtUBin2OTczEG9LACiG-44" value="&lt;b style=&quot;font-size: 20px&quot;&gt;&lt;span&gt;Commit4_&lt;/span&gt;&lt;span&gt;ALL&lt;/span&gt;&lt;/b&gt;" style="shape=note;whiteSpace=wrap;html=1;backgroundOutline=1;darkOpacity=0.05;fontSize=19;fillColor=#f8cecc;strokeColor=#b85450;" parent="HmtUBin2OTczEG9LACiG-1" vertex="1">
          <mxGeometry x="105" y="430" width="210" height="20" as="geometry" />
        </mxCell>
        <mxCell id="HmtUBin2OTczEG9LACiG-45" value="&lt;b style=&quot;font-size: 20px&quot;&gt;&lt;span&gt;Commit8_&lt;/span&gt;&lt;span&gt;ALL&lt;/span&gt;&lt;/b&gt;" style="shape=note;whiteSpace=wrap;html=1;backgroundOutline=1;darkOpacity=0.05;fontSize=19;fillColor=#f8cecc;strokeColor=#b85450;" parent="HmtUBin2OTczEG9LACiG-1" vertex="1">
          <mxGeometry x="110" y="670" width="210" height="20" as="geometry" />
        </mxCell>
        <mxCell id="HmtUBin2OTczEG9LACiG-51" value="" style="rounded=1;whiteSpace=wrap;html=1;fontSize=21;strokeColor=default;fillColor=default;gradientColor=none;" parent="HmtUBin2OTczEG9LACiG-1" vertex="1">
          <mxGeometry x="490" y="190" width="640" height="290" as="geometry" />
        </mxCell>
        <mxCell id="HmtUBin2OTczEG9LACiG-69" value="&lt;b&gt;端侧&lt;/b&gt;" style="text;html=1;strokeColor=none;fillColor=none;align=center;verticalAlign=middle;whiteSpace=wrap;rounded=0;fontSize=21;" parent="HmtUBin2OTczEG9LACiG-1" vertex="1">
          <mxGeometry x="650" y="160" width="60" height="30" as="geometry" />
        </mxCell>
        <mxCell id="HmtUBin2OTczEG9LACiG-70" value="&lt;b&gt;云控&lt;/b&gt;" style="text;html=1;strokeColor=none;fillColor=none;align=center;verticalAlign=middle;whiteSpace=wrap;rounded=0;fontSize=21;" parent="HmtUBin2OTczEG9LACiG-1" vertex="1">
          <mxGeometry x="180" y="170" width="60" height="30" as="geometry" />
        </mxCell>
        <mxCell id="HmtUBin2OTczEG9LACiG-72" value="发布" style="text;html=1;align=center;verticalAlign=middle;resizable=0;points=[];autosize=1;strokeColor=none;fillColor=none;fontSize=21;" parent="HmtUBin2OTczEG9LACiG-1" vertex="1">
          <mxGeometry x="10" y="635" width="60" height="30" as="geometry" />
        </mxCell>
        <mxCell id="HmtUBin2OTczEG9LACiG-73" style="edgeStyle=orthogonalEdgeStyle;rounded=0;orthogonalLoop=1;jettySize=auto;html=1;fontSize=21;endArrow=classic;endFill=1;" parent="HmtUBin2OTczEG9LACiG-1" source="HmtUBin2OTczEG9LACiG-20" target="HmtUBin2OTczEG9LACiG-5" edge="1">
          <mxGeometry relative="1" as="geometry">
            <Array as="points">
              <mxPoint x="10" y="320" />
              <mxPoint x="10" y="320" />
            </Array>
          </mxGeometry>
        </mxCell>
        <mxCell id="HmtUBin2OTczEG9LACiG-74" value="发布" style="text;html=1;align=center;verticalAlign=middle;resizable=0;points=[];autosize=1;strokeColor=none;fillColor=none;fontSize=21;" parent="HmtUBin2OTczEG9LACiG-1" vertex="1">
          <mxGeometry x="10" y="282.5" width="60" height="30" as="geometry" />
        </mxCell>
        <mxCell id="HmtUBin2OTczEG9LACiG-75" style="edgeStyle=orthogonalEdgeStyle;rounded=0;orthogonalLoop=1;jettySize=auto;html=1;fontSize=21;endArrow=classic;endFill=1;" parent="HmtUBin2OTczEG9LACiG-1" source="HmtUBin2OTczEG9LACiG-5" target="HmtUBin2OTczEG9LACiG-51" edge="1">
          <mxGeometry relative="1" as="geometry">
            <Array as="points">
              <mxPoint x="400" y="251" />
              <mxPoint x="400" y="251" />
            </Array>
          </mxGeometry>
        </mxCell>
        <mxCell id="HmtUBin2OTczEG9LACiG-77" value="release dir" style="text;html=1;strokeColor=none;fillColor=none;align=center;verticalAlign=middle;whiteSpace=wrap;rounded=0;fontSize=21;" parent="HmtUBin2OTczEG9LACiG-1" vertex="1">
          <mxGeometry x="612" y="197.5" width="338" height="30" as="geometry" />
        </mxCell>
        <mxCell id="HmtUBin2OTczEG9LACiG-82" value="ApkAsset" style="shape=note;whiteSpace=wrap;html=1;backgroundOutline=1;darkOpacity=0.05;fontSize=21;strokeColor=#666666;fillColor=#f5f5f5;fontColor=#333333;" parent="HmtUBin2OTczEG9LACiG-1" vertex="1">
          <mxGeometry x="500" y="623" width="580" height="186.25" as="geometry" />
        </mxCell>
        <mxCell id="G5rKpUQ4KpAfNOd8TWUl-0" value="&lt;span style=&quot;font-size: 20px;&quot;&gt;&lt;b&gt;...&lt;/b&gt;&lt;/span&gt;" style="shape=note;whiteSpace=wrap;html=1;backgroundOutline=1;darkOpacity=0.05;fontSize=19;fillColor=#dae8fc;strokeColor=#6c8ebf;" parent="HmtUBin2OTczEG9LACiG-1" vertex="1">
          <mxGeometry x="110" y="720" width="210" height="30" as="geometry" />
        </mxCell>
        <mxCell id="G5rKpUQ4KpAfNOd8TWUl-2" value="&lt;b style=&quot;font-size: 20px&quot;&gt;&lt;span&gt;Commit4_&lt;/span&gt;&lt;span&gt;Commit5&lt;/span&gt;&lt;/b&gt;" style="shape=note;whiteSpace=wrap;html=1;backgroundOutline=1;darkOpacity=0.05;fontSize=19;fillColor=#dae8fc;strokeColor=#6c8ebf;" parent="HmtUBin2OTczEG9LACiG-1" vertex="1">
          <mxGeometry x="110" y="480" width="210" height="30" as="geometry" />
        </mxCell>
        <mxCell id="G5rKpUQ4KpAfNOd8TWUl-3" value="&lt;b style=&quot;font-size: 20px&quot;&gt;&lt;span&gt;Commit4_&lt;/span&gt;&lt;span&gt;Commit6&lt;/span&gt;&lt;/b&gt;" style="shape=note;whiteSpace=wrap;html=1;backgroundOutline=1;darkOpacity=0.05;fontSize=19;fillColor=#dae8fc;strokeColor=#6c8ebf;" parent="HmtUBin2OTczEG9LACiG-1" vertex="1">
          <mxGeometry x="110" y="535" width="210" height="30" as="geometry" />
        </mxCell>
        <mxCell id="G5rKpUQ4KpAfNOd8TWUl-4" value="&lt;b style=&quot;font-size: 20px&quot;&gt;&lt;span&gt;Commit4_&lt;/span&gt;&lt;span&gt;Commit7&lt;/span&gt;&lt;/b&gt;" style="shape=note;whiteSpace=wrap;html=1;backgroundOutline=1;darkOpacity=0.05;fontSize=19;fillColor=#dae8fc;strokeColor=#6c8ebf;" parent="HmtUBin2OTczEG9LACiG-1" vertex="1">
          <mxGeometry x="110" y="593" width="210" height="30" as="geometry" />
        </mxCell>
        <mxCell id="G5rKpUQ4KpAfNOd8TWUl-5" value="&lt;span style=&quot;font-size: 20px;&quot;&gt;&lt;b&gt;....&lt;/b&gt;&lt;/span&gt;" style="shape=note;whiteSpace=wrap;html=1;backgroundOutline=1;darkOpacity=0.05;fontSize=19;fillColor=#dae8fc;strokeColor=#6c8ebf;" parent="HmtUBin2OTczEG9LACiG-1" vertex="1">
          <mxGeometry x="110" y="780" width="210" height="30" as="geometry" />
        </mxCell>
        <mxCell id="G5rKpUQ4KpAfNOd8TWUl-7" value="&lt;span style=&quot;font-size: 14px;&quot;&gt;Commit7（release1.2.11）&lt;/span&gt;" style="rounded=1;whiteSpace=wrap;html=1;" parent="HmtUBin2OTczEG9LACiG-1" vertex="1">
          <mxGeometry x="-210" y="653" width="160" height="50" as="geometry" />
        </mxCell>
        <mxCell id="G5rKpUQ4KpAfNOd8TWUl-8" value="&lt;br&gt;&lt;span style=&quot;font-size: 14px;&quot;&gt;Commit8（release1.2.12）&lt;/span&gt;" style="rounded=1;whiteSpace=wrap;html=1;" parent="HmtUBin2OTczEG9LACiG-1" vertex="1">
          <mxGeometry x="-210" y="720" width="160" height="50" as="geometry" />
        </mxCell>
        <mxCell id="G5rKpUQ4KpAfNOd8TWUl-11" value="...." style="rounded=1;whiteSpace=wrap;html=1;" parent="HmtUBin2OTczEG9LACiG-1" vertex="1">
          <mxGeometry x="-210" y="780" width="160" height="50" as="geometry" />
        </mxCell>
        <mxCell id="G5rKpUQ4KpAfNOd8TWUl-16" value="commit2" style="ellipse;whiteSpace=wrap;html=1;aspect=fixed;fontSize=21;strokeColor=default;fillColor=default;gradientColor=none;" parent="HmtUBin2OTczEG9LACiG-1" vertex="1">
          <mxGeometry x="660" y="226.25" width="80" height="80" as="geometry" />
        </mxCell>
        <mxCell id="G5rKpUQ4KpAfNOd8TWUl-17" value="commit3" style="ellipse;whiteSpace=wrap;html=1;aspect=fixed;fontSize=21;strokeColor=default;fillColor=default;gradientColor=none;" parent="HmtUBin2OTczEG9LACiG-1" vertex="1">
          <mxGeometry x="800" y="227.5" width="80" height="80" as="geometry" />
        </mxCell>
        <mxCell id="G5rKpUQ4KpAfNOd8TWUl-18" value="commit4" style="ellipse;whiteSpace=wrap;html=1;aspect=fixed;fontSize=21;strokeColor=default;fillColor=default;gradientColor=none;" parent="HmtUBin2OTczEG9LACiG-1" vertex="1">
          <mxGeometry x="940" y="226.25" width="80" height="80" as="geometry" />
        </mxCell>
        <mxCell id="G5rKpUQ4KpAfNOd8TWUl-19" value="commit5" style="ellipse;whiteSpace=wrap;html=1;aspect=fixed;fontSize=21;strokeColor=default;fillColor=default;gradientColor=none;" parent="HmtUBin2OTczEG9LACiG-1" vertex="1">
          <mxGeometry x="532" y="360" width="80" height="80" as="geometry" />
        </mxCell>
        <mxCell id="G5rKpUQ4KpAfNOd8TWUl-20" value="commit6" style="ellipse;whiteSpace=wrap;html=1;aspect=fixed;fontSize=21;strokeColor=default;fillColor=default;gradientColor=none;" parent="HmtUBin2OTczEG9LACiG-1" vertex="1">
          <mxGeometry x="660" y="360" width="80" height="80" as="geometry" />
        </mxCell>
        <mxCell id="G5rKpUQ4KpAfNOd8TWUl-27" value="" style="edgeStyle=orthogonalEdgeStyle;rounded=0;orthogonalLoop=1;jettySize=auto;html=1;entryX=0.585;entryY=0.017;entryDx=0;entryDy=0;entryPerimeter=0;" parent="HmtUBin2OTczEG9LACiG-1" source="G5rKpUQ4KpAfNOd8TWUl-22" target="HmtUBin2OTczEG9LACiG-82" edge="1">
          <mxGeometry relative="1" as="geometry">
            <mxPoint x="840" y="610" as="targetPoint" />
          </mxGeometry>
        </mxCell>
        <mxCell id="G5rKpUQ4KpAfNOd8TWUl-22" value="commit7" style="ellipse;whiteSpace=wrap;html=1;aspect=fixed;fontSize=21;strokeColor=default;fillColor=default;gradientColor=none;" parent="HmtUBin2OTczEG9LACiG-1" vertex="1">
          <mxGeometry x="800" y="362.5" width="80" height="80" as="geometry" />
        </mxCell>
        <mxCell id="G5rKpUQ4KpAfNOd8TWUl-23" value="commit8" style="ellipse;whiteSpace=wrap;html=1;aspect=fixed;fontSize=21;strokeColor=default;fillColor=#E6E6E6;gradientColor=none;" parent="HmtUBin2OTczEG9LACiG-1" vertex="1">
          <mxGeometry x="940" y="360" width="80" height="80" as="geometry" />
        </mxCell>
        <mxCell id="G5rKpUQ4KpAfNOd8TWUl-26" value="publish" style="text;html=1;strokeColor=none;fillColor=none;align=center;verticalAlign=middle;whiteSpace=wrap;rounded=0;fontSize=21;" parent="HmtUBin2OTczEG9LACiG-1" vertex="1">
          <mxGeometry x="690" y="535" width="210" height="30" as="geometry" />
        </mxCell>
        <mxCell id="G5rKpUQ4KpAfNOd8TWUl-28" value="commit1" style="ellipse;whiteSpace=wrap;html=1;aspect=fixed;fontSize=21;strokeColor=default;fillColor=#E6E6E6;gradientColor=none;" parent="HmtUBin2OTczEG9LACiG-1" vertex="1">
          <mxGeometry x="530" y="227.5" width="80" height="80" as="geometry" />
        </mxCell>
        <mxCell id="QuvbPIlJq2SeDHdVV6D2-4" value="&lt;p style=&quot;--tw-border-spacing-x: 0; --tw-border-spacing-y: 0; --tw-translate-x: 0; --tw-translate-y: 0; --tw-rotate: 0; --tw-skew-x: 0; --tw-skew-y: 0; --tw-scale-x: 1; --tw-scale-y: 1; --tw-pan-x: ; --tw-pan-y: ; --tw-pinch-zoom: ; --tw-scroll-snap-strictness: proximity; --tw-ordinal: ; --tw-slashed-zero: ; --tw-numeric-figure: ; --tw-numeric-spacing: ; --tw-numeric-fraction: ; --tw-ring-inset: ; --tw-ring-offset-width: 0px; --tw-ring-offset-color: #fff; --tw-ring-color: rgb(59 130 246 / 0.5); --tw-ring-offset-shadow: 0 0 #0000; --tw-ring-shadow: 0 0 #0000; --tw-shadow: 0 0 #0000; --tw-shadow-colored: 0 0 #0000; --tw-blur: ; --tw-brightness: ; --tw-contrast: ; --tw-grayscale: ; --tw-hue-rotate: ; --tw-invert: ; --tw-saturate: ; --tw-sepia: ; --tw-drop-shadow: ; --tw-backdrop-blur: ; --tw-backdrop-brightness: ; --tw-backdrop-contrast: ; --tw-backdrop-grayscale: ; --tw-backdrop-hue-rotate: ; --tw-backdrop-invert: ; --tw-backdrop-opacity: ; --tw-backdrop-saturate: ; --tw-backdrop-sepia: ;&quot;&gt;&lt;span style=&quot;--tw-border-spacing-x: 0; --tw-border-spacing-y: 0; --tw-translate-x: 0; --tw-translate-y: 0; --tw-rotate: 0; --tw-skew-x: 0; --tw-skew-y: 0; --tw-scale-x: 1; --tw-scale-y: 1; --tw-pan-x: ; --tw-pan-y: ; --tw-pinch-zoom: ; --tw-scroll-snap-strictness: proximity; --tw-ordinal: ; --tw-slashed-zero: ; --tw-numeric-figure: ; --tw-numeric-spacing: ; --tw-numeric-fraction: ; --tw-ring-inset: ; --tw-ring-offset-width: 0px; --tw-ring-offset-color: #fff; --tw-ring-color: rgb(59 130 246 / 0.5); --tw-ring-offset-shadow: 0 0 #0000; --tw-ring-shadow: 0 0 #0000; --tw-shadow: 0 0 #0000; --tw-shadow-colored: 0 0 #0000; --tw-blur: ; --tw-brightness: ; --tw-contrast: ; --tw-grayscale: ; --tw-hue-rotate: ; --tw-invert: ; --tw-saturate: ; --tw-sepia: ; --tw-drop-shadow: ; --tw-backdrop-blur: ; --tw-backdrop-brightness: ; --tw-backdrop-contrast: ; --tw-backdrop-grayscale: ; --tw-backdrop-hue-rotate: ; --tw-backdrop-invert: ; --tw-backdrop-opacity: ; --tw-backdrop-saturate: ; --tw-backdrop-sepia: ; background-color: initial; font-size: 21px;&quot;&gt;&quot;version_info&quot;:{&lt;/span&gt;&lt;/p&gt;&lt;p style=&quot;--tw-border-spacing-x: 0; --tw-border-spacing-y: 0; --tw-translate-x: 0; --tw-translate-y: 0; --tw-rotate: 0; --tw-skew-x: 0; --tw-skew-y: 0; --tw-scale-x: 1; --tw-scale-y: 1; --tw-pan-x: ; --tw-pan-y: ; --tw-pinch-zoom: ; --tw-scroll-snap-strictness: proximity; --tw-ordinal: ; --tw-slashed-zero: ; --tw-numeric-figure: ; --tw-numeric-spacing: ; --tw-numeric-fraction: ; --tw-ring-inset: ; --tw-ring-offset-width: 0px; --tw-ring-offset-color: #fff; --tw-ring-color: rgb(59 130 246 / 0.5); --tw-ring-offset-shadow: 0 0 #0000; --tw-ring-shadow: 0 0 #0000; --tw-shadow: 0 0 #0000; --tw-shadow-colored: 0 0 #0000; --tw-blur: ; --tw-brightness: ; --tw-contrast: ; --tw-grayscale: ; --tw-hue-rotate: ; --tw-invert: ; --tw-saturate: ; --tw-sepia: ; --tw-drop-shadow: ; --tw-backdrop-blur: ; --tw-backdrop-brightness: ; --tw-backdrop-contrast: ; --tw-backdrop-grayscale: ; --tw-backdrop-hue-rotate: ; --tw-backdrop-invert: ; --tw-backdrop-opacity: ; --tw-backdrop-saturate: ; --tw-backdrop-sepia: ;&quot;&gt;&lt;span style=&quot;--tw-border-spacing-x: 0; --tw-border-spacing-y: 0; --tw-translate-x: 0; --tw-translate-y: 0; --tw-rotate: 0; --tw-skew-x: 0; --tw-skew-y: 0; --tw-scale-x: 1; --tw-scale-y: 1; --tw-pan-x: ; --tw-pan-y: ; --tw-pinch-zoom: ; --tw-scroll-snap-strictness: proximity; --tw-ordinal: ; --tw-slashed-zero: ; --tw-numeric-figure: ; --tw-numeric-spacing: ; --tw-numeric-fraction: ; --tw-ring-inset: ; --tw-ring-offset-width: 0px; --tw-ring-offset-color: #fff; --tw-ring-color: rgb(59 130 246 / 0.5); --tw-ring-offset-shadow: 0 0 #0000; --tw-ring-shadow: 0 0 #0000; --tw-shadow: 0 0 #0000; --tw-shadow-colored: 0 0 #0000; --tw-blur: ; --tw-brightness: ; --tw-contrast: ; --tw-grayscale: ; --tw-hue-rotate: ; --tw-invert: ; --tw-saturate: ; --tw-sepia: ; --tw-drop-shadow: ; --tw-backdrop-blur: ; --tw-backdrop-brightness: ; --tw-backdrop-contrast: ; --tw-backdrop-grayscale: ; --tw-backdrop-hue-rotate: ; --tw-backdrop-invert: ; --tw-backdrop-opacity: ; --tw-backdrop-saturate: ; --tw-backdrop-sepia: ; font-size: 21px;&quot;&gt;&amp;nbsp; &amp;nbsp; &quot;commit1_commit2&quot;: {&lt;/span&gt;&lt;/p&gt;&lt;p style=&quot;--tw-border-spacing-x: 0; --tw-border-spacing-y: 0; --tw-translate-x: 0; --tw-translate-y: 0; --tw-rotate: 0; --tw-skew-x: 0; --tw-skew-y: 0; --tw-scale-x: 1; --tw-scale-y: 1; --tw-pan-x: ; --tw-pan-y: ; --tw-pinch-zoom: ; --tw-scroll-snap-strictness: proximity; --tw-ordinal: ; --tw-slashed-zero: ; --tw-numeric-figure: ; --tw-numeric-spacing: ; --tw-numeric-fraction: ; --tw-ring-inset: ; --tw-ring-offset-width: 0px; --tw-ring-offset-color: #fff; --tw-ring-color: rgb(59 130 246 / 0.5); --tw-ring-offset-shadow: 0 0 #0000; --tw-ring-shadow: 0 0 #0000; --tw-shadow: 0 0 #0000; --tw-shadow-colored: 0 0 #0000; --tw-blur: ; --tw-brightness: ; --tw-contrast: ; --tw-grayscale: ; --tw-hue-rotate: ; --tw-invert: ; --tw-saturate: ; --tw-sepia: ; --tw-drop-shadow: ; --tw-backdrop-blur: ; --tw-backdrop-brightness: ; --tw-backdrop-contrast: ; --tw-backdrop-grayscale: ; --tw-backdrop-hue-rotate: ; --tw-backdrop-invert: ; --tw-backdrop-opacity: ; --tw-backdrop-saturate: ; --tw-backdrop-sepia: ;&quot;&gt;&lt;span style=&quot;--tw-border-spacing-x: 0; --tw-border-spacing-y: 0; --tw-translate-x: 0; --tw-translate-y: 0; --tw-rotate: 0; --tw-skew-x: 0; --tw-skew-y: 0; --tw-scale-x: 1; --tw-scale-y: 1; --tw-pan-x: ; --tw-pan-y: ; --tw-pinch-zoom: ; --tw-scroll-snap-strictness: proximity; --tw-ordinal: ; --tw-slashed-zero: ; --tw-numeric-figure: ; --tw-numeric-spacing: ; --tw-numeric-fraction: ; --tw-ring-inset: ; --tw-ring-offset-width: 0px; --tw-ring-offset-color: #fff; --tw-ring-color: rgb(59 130 246 / 0.5); --tw-ring-offset-shadow: 0 0 #0000; --tw-ring-shadow: 0 0 #0000; --tw-shadow: 0 0 #0000; --tw-shadow-colored: 0 0 #0000; --tw-blur: ; --tw-brightness: ; --tw-contrast: ; --tw-grayscale: ; --tw-hue-rotate: ; --tw-invert: ; --tw-saturate: ; --tw-sepia: ; --tw-drop-shadow: ; --tw-backdrop-blur: ; --tw-backdrop-brightness: ; --tw-backdrop-contrast: ; --tw-backdrop-grayscale: ; --tw-backdrop-hue-rotate: ; --tw-backdrop-invert: ; --tw-backdrop-opacity: ; --tw-backdrop-saturate: ; --tw-backdrop-sepia: ; font-size: 21px;&quot;&gt;&amp;nbsp; &amp;nbsp; &amp;nbsp; &amp;nbsp; &quot;upsert&quot;: [&lt;/span&gt;&lt;/p&gt;&lt;p style=&quot;--tw-border-spacing-x: 0; --tw-border-spacing-y: 0; --tw-translate-x: 0; --tw-translate-y: 0; --tw-rotate: 0; --tw-skew-x: 0; --tw-skew-y: 0; --tw-scale-x: 1; --tw-scale-y: 1; --tw-pan-x: ; --tw-pan-y: ; --tw-pinch-zoom: ; --tw-scroll-snap-strictness: proximity; --tw-ordinal: ; --tw-slashed-zero: ; --tw-numeric-figure: ; --tw-numeric-spacing: ; --tw-numeric-fraction: ; --tw-ring-inset: ; --tw-ring-offset-width: 0px; --tw-ring-offset-color: #fff; --tw-ring-color: rgb(59 130 246 / 0.5); --tw-ring-offset-shadow: 0 0 #0000; --tw-ring-shadow: 0 0 #0000; --tw-shadow: 0 0 #0000; --tw-shadow-colored: 0 0 #0000; --tw-blur: ; --tw-brightness: ; --tw-contrast: ; --tw-grayscale: ; --tw-hue-rotate: ; --tw-invert: ; --tw-saturate: ; --tw-sepia: ; --tw-drop-shadow: ; --tw-backdrop-blur: ; --tw-backdrop-brightness: ; --tw-backdrop-contrast: ; --tw-backdrop-grayscale: ; --tw-backdrop-hue-rotate: ; --tw-backdrop-invert: ; --tw-backdrop-opacity: ; --tw-backdrop-saturate: ; --tw-backdrop-sepia: ;&quot;&gt;&lt;span style=&quot;--tw-border-spacing-x: 0; --tw-border-spacing-y: 0; --tw-translate-x: 0; --tw-translate-y: 0; --tw-rotate: 0; --tw-skew-x: 0; --tw-skew-y: 0; --tw-scale-x: 1; --tw-scale-y: 1; --tw-pan-x: ; --tw-pan-y: ; --tw-pinch-zoom: ; --tw-scroll-snap-strictness: proximity; --tw-ordinal: ; --tw-slashed-zero: ; --tw-numeric-figure: ; --tw-numeric-spacing: ; --tw-numeric-fraction: ; --tw-ring-inset: ; --tw-ring-offset-width: 0px; --tw-ring-offset-color: #fff; --tw-ring-color: rgb(59 130 246 / 0.5); --tw-ring-offset-shadow: 0 0 #0000; --tw-ring-shadow: 0 0 #0000; --tw-shadow: 0 0 #0000; --tw-shadow-colored: 0 0 #0000; --tw-blur: ; --tw-brightness: ; --tw-contrast: ; --tw-grayscale: ; --tw-hue-rotate: ; --tw-invert: ; --tw-saturate: ; --tw-sepia: ; --tw-drop-shadow: ; --tw-backdrop-blur: ; --tw-backdrop-brightness: ; --tw-backdrop-contrast: ; --tw-backdrop-grayscale: ; --tw-backdrop-hue-rotate: ; --tw-backdrop-invert: ; --tw-backdrop-opacity: ; --tw-backdrop-saturate: ; --tw-backdrop-sepia: ; font-size: 21px;&quot;&gt;&amp;nbsp; &amp;nbsp; &amp;nbsp; &amp;nbsp; &amp;nbsp; &amp;nbsp; &amp;nbsp; &amp;nbsp; &quot;PackageManager1.json&quot;,&lt;/span&gt;&lt;/p&gt;&lt;p style=&quot;--tw-border-spacing-x: 0; --tw-border-spacing-y: 0; --tw-translate-x: 0; --tw-translate-y: 0; --tw-rotate: 0; --tw-skew-x: 0; --tw-skew-y: 0; --tw-scale-x: 1; --tw-scale-y: 1; --tw-pan-x: ; --tw-pan-y: ; --tw-pinch-zoom: ; --tw-scroll-snap-strictness: proximity; --tw-ordinal: ; --tw-slashed-zero: ; --tw-numeric-figure: ; --tw-numeric-spacing: ; --tw-numeric-fraction: ; --tw-ring-inset: ; --tw-ring-offset-width: 0px; --tw-ring-offset-color: #fff; --tw-ring-color: rgb(59 130 246 / 0.5); --tw-ring-offset-shadow: 0 0 #0000; --tw-ring-shadow: 0 0 #0000; --tw-shadow: 0 0 #0000; --tw-shadow-colored: 0 0 #0000; --tw-blur: ; --tw-brightness: ; --tw-contrast: ; --tw-grayscale: ; --tw-hue-rotate: ; --tw-invert: ; --tw-saturate: ; --tw-sepia: ; --tw-drop-shadow: ; --tw-backdrop-blur: ; --tw-backdrop-brightness: ; --tw-backdrop-contrast: ; --tw-backdrop-grayscale: ; --tw-backdrop-hue-rotate: ; --tw-backdrop-invert: ; --tw-backdrop-opacity: ; --tw-backdrop-saturate: ; --tw-backdrop-sepia: ;&quot;&gt;&lt;span style=&quot;--tw-border-spacing-x: 0; --tw-border-spacing-y: 0; --tw-translate-x: 0; --tw-translate-y: 0; --tw-rotate: 0; --tw-skew-x: 0; --tw-skew-y: 0; --tw-scale-x: 1; --tw-scale-y: 1; --tw-pan-x: ; --tw-pan-y: ; --tw-pinch-zoom: ; --tw-scroll-snap-strictness: proximity; --tw-ordinal: ; --tw-slashed-zero: ; --tw-numeric-figure: ; --tw-numeric-spacing: ; --tw-numeric-fraction: ; --tw-ring-inset: ; --tw-ring-offset-width: 0px; --tw-ring-offset-color: #fff; --tw-ring-color: rgb(59 130 246 / 0.5); --tw-ring-offset-shadow: 0 0 #0000; --tw-ring-shadow: 0 0 #0000; --tw-shadow: 0 0 #0000; --tw-shadow-colored: 0 0 #0000; --tw-blur: ; --tw-brightness: ; --tw-contrast: ; --tw-grayscale: ; --tw-hue-rotate: ; --tw-invert: ; --tw-saturate: ; --tw-sepia: ; --tw-drop-shadow: ; --tw-backdrop-blur: ; --tw-backdrop-brightness: ; --tw-backdrop-contrast: ; --tw-backdrop-grayscale: ; --tw-backdrop-hue-rotate: ; --tw-backdrop-invert: ; --tw-backdrop-opacity: ; --tw-backdrop-saturate: ; --tw-backdrop-sepia: ; font-size: 21px;&quot;&gt;&amp;nbsp; &amp;nbsp; &amp;nbsp; &amp;nbsp; &amp;nbsp; &amp;nbsp; &amp;nbsp; &amp;nbsp; &quot;PackageManager2.json&quot;&lt;/span&gt;&lt;/p&gt;&lt;p style=&quot;--tw-border-spacing-x: 0; --tw-border-spacing-y: 0; --tw-translate-x: 0; --tw-translate-y: 0; --tw-rotate: 0; --tw-skew-x: 0; --tw-skew-y: 0; --tw-scale-x: 1; --tw-scale-y: 1; --tw-pan-x: ; --tw-pan-y: ; --tw-pinch-zoom: ; --tw-scroll-snap-strictness: proximity; --tw-ordinal: ; --tw-slashed-zero: ; --tw-numeric-figure: ; --tw-numeric-spacing: ; --tw-numeric-fraction: ; --tw-ring-inset: ; --tw-ring-offset-width: 0px; --tw-ring-offset-color: #fff; --tw-ring-color: rgb(59 130 246 / 0.5); --tw-ring-offset-shadow: 0 0 #0000; --tw-ring-shadow: 0 0 #0000; --tw-shadow: 0 0 #0000; --tw-shadow-colored: 0 0 #0000; --tw-blur: ; --tw-brightness: ; --tw-contrast: ; --tw-grayscale: ; --tw-hue-rotate: ; --tw-invert: ; --tw-saturate: ; --tw-sepia: ; --tw-drop-shadow: ; --tw-backdrop-blur: ; --tw-backdrop-brightness: ; --tw-backdrop-contrast: ; --tw-backdrop-grayscale: ; --tw-backdrop-hue-rotate: ; --tw-backdrop-invert: ; --tw-backdrop-opacity: ; --tw-backdrop-saturate: ; --tw-backdrop-sepia: ;&quot;&gt;&lt;span style=&quot;--tw-border-spacing-x: 0; --tw-border-spacing-y: 0; --tw-translate-x: 0; --tw-translate-y: 0; --tw-rotate: 0; --tw-skew-x: 0; --tw-skew-y: 0; --tw-scale-x: 1; --tw-scale-y: 1; --tw-pan-x: ; --tw-pan-y: ; --tw-pinch-zoom: ; --tw-scroll-snap-strictness: proximity; --tw-ordinal: ; --tw-slashed-zero: ; --tw-numeric-figure: ; --tw-numeric-spacing: ; --tw-numeric-fraction: ; --tw-ring-inset: ; --tw-ring-offset-width: 0px; --tw-ring-offset-color: #fff; --tw-ring-color: rgb(59 130 246 / 0.5); --tw-ring-offset-shadow: 0 0 #0000; --tw-ring-shadow: 0 0 #0000; --tw-shadow: 0 0 #0000; --tw-shadow-colored: 0 0 #0000; --tw-blur: ; --tw-brightness: ; --tw-contrast: ; --tw-grayscale: ; --tw-hue-rotate: ; --tw-invert: ; --tw-saturate: ; --tw-sepia: ; --tw-drop-shadow: ; --tw-backdrop-blur: ; --tw-backdrop-brightness: ; --tw-backdrop-contrast: ; --tw-backdrop-grayscale: ; --tw-backdrop-hue-rotate: ; --tw-backdrop-invert: ; --tw-backdrop-opacity: ; --tw-backdrop-saturate: ; --tw-backdrop-sepia: ; font-size: 21px;&quot;&gt;&amp;nbsp; &amp;nbsp; &amp;nbsp; &amp;nbsp; ],&lt;/span&gt;&lt;/p&gt;&lt;p style=&quot;--tw-border-spacing-x: 0; --tw-border-spacing-y: 0; --tw-translate-x: 0; --tw-translate-y: 0; --tw-rotate: 0; --tw-skew-x: 0; --tw-skew-y: 0; --tw-scale-x: 1; --tw-scale-y: 1; --tw-pan-x: ; --tw-pan-y: ; --tw-pinch-zoom: ; --tw-scroll-snap-strictness: proximity; --tw-ordinal: ; --tw-slashed-zero: ; --tw-numeric-figure: ; --tw-numeric-spacing: ; --tw-numeric-fraction: ; --tw-ring-inset: ; --tw-ring-offset-width: 0px; --tw-ring-offset-color: #fff; --tw-ring-color: rgb(59 130 246 / 0.5); --tw-ring-offset-shadow: 0 0 #0000; --tw-ring-shadow: 0 0 #0000; --tw-shadow: 0 0 #0000; --tw-shadow-colored: 0 0 #0000; --tw-blur: ; --tw-brightness: ; --tw-contrast: ; --tw-grayscale: ; --tw-hue-rotate: ; --tw-invert: ; --tw-saturate: ; --tw-sepia: ; --tw-drop-shadow: ; --tw-backdrop-blur: ; --tw-backdrop-brightness: ; --tw-backdrop-contrast: ; --tw-backdrop-grayscale: ; --tw-backdrop-hue-rotate: ; --tw-backdrop-invert: ; --tw-backdrop-opacity: ; --tw-backdrop-saturate: ; --tw-backdrop-sepia: ;&quot;&gt;&lt;span style=&quot;--tw-border-spacing-x: 0; --tw-border-spacing-y: 0; --tw-translate-x: 0; --tw-translate-y: 0; --tw-rotate: 0; --tw-skew-x: 0; --tw-skew-y: 0; --tw-scale-x: 1; --tw-scale-y: 1; --tw-pan-x: ; --tw-pan-y: ; --tw-pinch-zoom: ; --tw-scroll-snap-strictness: proximity; --tw-ordinal: ; --tw-slashed-zero: ; --tw-numeric-figure: ; --tw-numeric-spacing: ; --tw-numeric-fraction: ; --tw-ring-inset: ; --tw-ring-offset-width: 0px; --tw-ring-offset-color: #fff; --tw-ring-color: rgb(59 130 246 / 0.5); --tw-ring-offset-shadow: 0 0 #0000; --tw-ring-shadow: 0 0 #0000; --tw-shadow: 0 0 #0000; --tw-shadow-colored: 0 0 #0000; --tw-blur: ; --tw-brightness: ; --tw-contrast: ; --tw-grayscale: ; --tw-hue-rotate: ; --tw-invert: ; --tw-saturate: ; --tw-sepia: ; --tw-drop-shadow: ; --tw-backdrop-blur: ; --tw-backdrop-brightness: ; --tw-backdrop-contrast: ; --tw-backdrop-grayscale: ; --tw-backdrop-hue-rotate: ; --tw-backdrop-invert: ; --tw-backdrop-opacity: ; --tw-backdrop-saturate: ; --tw-backdrop-sepia: ; font-size: 21px;&quot;&gt;&amp;nbsp; &amp;nbsp; &amp;nbsp; &amp;nbsp; &quot;delete&quot;: [&lt;/span&gt;&lt;/p&gt;&lt;p style=&quot;--tw-border-spacing-x: 0; --tw-border-spacing-y: 0; --tw-translate-x: 0; --tw-translate-y: 0; --tw-rotate: 0; --tw-skew-x: 0; --tw-skew-y: 0; --tw-scale-x: 1; --tw-scale-y: 1; --tw-pan-x: ; --tw-pan-y: ; --tw-pinch-zoom: ; --tw-scroll-snap-strictness: proximity; --tw-ordinal: ; --tw-slashed-zero: ; --tw-numeric-figure: ; --tw-numeric-spacing: ; --tw-numeric-fraction: ; --tw-ring-inset: ; --tw-ring-offset-width: 0px; --tw-ring-offset-color: #fff; --tw-ring-color: rgb(59 130 246 / 0.5); --tw-ring-offset-shadow: 0 0 #0000; --tw-ring-shadow: 0 0 #0000; --tw-shadow: 0 0 #0000; --tw-shadow-colored: 0 0 #0000; --tw-blur: ; --tw-brightness: ; --tw-contrast: ; --tw-grayscale: ; --tw-hue-rotate: ; --tw-invert: ; --tw-saturate: ; --tw-sepia: ; --tw-drop-shadow: ; --tw-backdrop-blur: ; --tw-backdrop-brightness: ; --tw-backdrop-contrast: ; --tw-backdrop-grayscale: ; --tw-backdrop-hue-rotate: ; --tw-backdrop-invert: ; --tw-backdrop-opacity: ; --tw-backdrop-saturate: ; --tw-backdrop-sepia: ;&quot;&gt;&lt;span style=&quot;--tw-border-spacing-x: 0; --tw-border-spacing-y: 0; --tw-translate-x: 0; --tw-translate-y: 0; --tw-rotate: 0; --tw-skew-x: 0; --tw-skew-y: 0; --tw-scale-x: 1; --tw-scale-y: 1; --tw-pan-x: ; --tw-pan-y: ; --tw-pinch-zoom: ; --tw-scroll-snap-strictness: proximity; --tw-ordinal: ; --tw-slashed-zero: ; --tw-numeric-figure: ; --tw-numeric-spacing: ; --tw-numeric-fraction: ; --tw-ring-inset: ; --tw-ring-offset-width: 0px; --tw-ring-offset-color: #fff; --tw-ring-color: rgb(59 130 246 / 0.5); --tw-ring-offset-shadow: 0 0 #0000; --tw-ring-shadow: 0 0 #0000; --tw-shadow: 0 0 #0000; --tw-shadow-colored: 0 0 #0000; --tw-blur: ; --tw-brightness: ; --tw-contrast: ; --tw-grayscale: ; --tw-hue-rotate: ; --tw-invert: ; --tw-saturate: ; --tw-sepia: ; --tw-drop-shadow: ; --tw-backdrop-blur: ; --tw-backdrop-brightness: ; --tw-backdrop-contrast: ; --tw-backdrop-grayscale: ; --tw-backdrop-hue-rotate: ; --tw-backdrop-invert: ; --tw-backdrop-opacity: ; --tw-backdrop-saturate: ; --tw-backdrop-sepia: ; font-size: 21px;&quot;&gt;&amp;nbsp; &amp;nbsp; &amp;nbsp; &amp;nbsp; &amp;nbsp; &amp;nbsp; &amp;nbsp; &amp;nbsp; &quot;PackageManager3.json&quot;,&lt;/span&gt;&lt;/p&gt;&lt;p style=&quot;--tw-border-spacing-x: 0; --tw-border-spacing-y: 0; --tw-translate-x: 0; --tw-translate-y: 0; --tw-rotate: 0; --tw-skew-x: 0; --tw-skew-y: 0; --tw-scale-x: 1; --tw-scale-y: 1; --tw-pan-x: ; --tw-pan-y: ; --tw-pinch-zoom: ; --tw-scroll-snap-strictness: proximity; --tw-ordinal: ; --tw-slashed-zero: ; --tw-numeric-figure: ; --tw-numeric-spacing: ; --tw-numeric-fraction: ; --tw-ring-inset: ; --tw-ring-offset-width: 0px; --tw-ring-offset-color: #fff; --tw-ring-color: rgb(59 130 246 / 0.5); --tw-ring-offset-shadow: 0 0 #0000; --tw-ring-shadow: 0 0 #0000; --tw-shadow: 0 0 #0000; --tw-shadow-colored: 0 0 #0000; --tw-blur: ; --tw-brightness: ; --tw-contrast: ; --tw-grayscale: ; --tw-hue-rotate: ; --tw-invert: ; --tw-saturate: ; --tw-sepia: ; --tw-drop-shadow: ; --tw-backdrop-blur: ; --tw-backdrop-brightness: ; --tw-backdrop-contrast: ; --tw-backdrop-grayscale: ; --tw-backdrop-hue-rotate: ; --tw-backdrop-invert: ; --tw-backdrop-opacity: ; --tw-backdrop-saturate: ; --tw-backdrop-sepia: ;&quot;&gt;&lt;span style=&quot;--tw-border-spacing-x: 0; --tw-border-spacing-y: 0; --tw-translate-x: 0; --tw-translate-y: 0; --tw-rotate: 0; --tw-skew-x: 0; --tw-skew-y: 0; --tw-scale-x: 1; --tw-scale-y: 1; --tw-pan-x: ; --tw-pan-y: ; --tw-pinch-zoom: ; --tw-scroll-snap-strictness: proximity; --tw-ordinal: ; --tw-slashed-zero: ; --tw-numeric-figure: ; --tw-numeric-spacing: ; --tw-numeric-fraction: ; --tw-ring-inset: ; --tw-ring-offset-width: 0px; --tw-ring-offset-color: #fff; --tw-ring-color: rgb(59 130 246 / 0.5); --tw-ring-offset-shadow: 0 0 #0000; --tw-ring-shadow: 0 0 #0000; --tw-shadow: 0 0 #0000; --tw-shadow-colored: 0 0 #0000; --tw-blur: ; --tw-brightness: ; --tw-contrast: ; --tw-grayscale: ; --tw-hue-rotate: ; --tw-invert: ; --tw-saturate: ; --tw-sepia: ; --tw-drop-shadow: ; --tw-backdrop-blur: ; --tw-backdrop-brightness: ; --tw-backdrop-contrast: ; --tw-backdrop-grayscale: ; --tw-backdrop-hue-rotate: ; --tw-backdrop-invert: ; --tw-backdrop-opacity: ; --tw-backdrop-saturate: ; --tw-backdrop-sepia: ; font-size: 21px;&quot;&gt;&amp;nbsp; &amp;nbsp; &amp;nbsp; &amp;nbsp; &amp;nbsp; &amp;nbsp; &amp;nbsp; &amp;nbsp; &quot;PackageManager4.json&quot;&amp;nbsp; &amp;nbsp; &amp;nbsp; &amp;nbsp;&lt;/span&gt;&lt;/p&gt;&lt;p style=&quot;--tw-border-spacing-x: 0; --tw-border-spacing-y: 0; --tw-translate-x: 0; --tw-translate-y: 0; --tw-rotate: 0; --tw-skew-x: 0; --tw-skew-y: 0; --tw-scale-x: 1; --tw-scale-y: 1; --tw-pan-x: ; --tw-pan-y: ; --tw-pinch-zoom: ; --tw-scroll-snap-strictness: proximity; --tw-ordinal: ; --tw-slashed-zero: ; --tw-numeric-figure: ; --tw-numeric-spacing: ; --tw-numeric-fraction: ; --tw-ring-inset: ; --tw-ring-offset-width: 0px; --tw-ring-offset-color: #fff; --tw-ring-color: rgb(59 130 246 / 0.5); --tw-ring-offset-shadow: 0 0 #0000; --tw-ring-shadow: 0 0 #0000; --tw-shadow: 0 0 #0000; --tw-shadow-colored: 0 0 #0000; --tw-blur: ; --tw-brightness: ; --tw-contrast: ; --tw-grayscale: ; --tw-hue-rotate: ; --tw-invert: ; --tw-saturate: ; --tw-sepia: ; --tw-drop-shadow: ; --tw-backdrop-blur: ; --tw-backdrop-brightness: ; --tw-backdrop-contrast: ; --tw-backdrop-grayscale: ; --tw-backdrop-hue-rotate: ; --tw-backdrop-invert: ; --tw-backdrop-opacity: ; --tw-backdrop-saturate: ; --tw-backdrop-sepia: ;&quot;&gt;&lt;span style=&quot;--tw-border-spacing-x: 0; --tw-border-spacing-y: 0; --tw-translate-x: 0; --tw-translate-y: 0; --tw-rotate: 0; --tw-skew-x: 0; --tw-skew-y: 0; --tw-scale-x: 1; --tw-scale-y: 1; --tw-pan-x: ; --tw-pan-y: ; --tw-pinch-zoom: ; --tw-scroll-snap-strictness: proximity; --tw-ordinal: ; --tw-slashed-zero: ; --tw-numeric-figure: ; --tw-numeric-spacing: ; --tw-numeric-fraction: ; --tw-ring-inset: ; --tw-ring-offset-width: 0px; --tw-ring-offset-color: #fff; --tw-ring-color: rgb(59 130 246 / 0.5); --tw-ring-offset-shadow: 0 0 #0000; --tw-ring-shadow: 0 0 #0000; --tw-shadow: 0 0 #0000; --tw-shadow-colored: 0 0 #0000; --tw-blur: ; --tw-brightness: ; --tw-contrast: ; --tw-grayscale: ; --tw-hue-rotate: ; --tw-invert: ; --tw-saturate: ; --tw-sepia: ; --tw-drop-shadow: ; --tw-backdrop-blur: ; --tw-backdrop-brightness: ; --tw-backdrop-contrast: ; --tw-backdrop-grayscale: ; --tw-backdrop-hue-rotate: ; --tw-backdrop-invert: ; --tw-backdrop-opacity: ; --tw-backdrop-saturate: ; --tw-backdrop-sepia: ; font-size: 21px;&quot;&gt;&amp;nbsp; &amp;nbsp; &amp;nbsp; &amp;nbsp; ]&lt;/span&gt;&lt;/p&gt;&lt;p style=&quot;--tw-border-spacing-x: 0; --tw-border-spacing-y: 0; --tw-translate-x: 0; --tw-translate-y: 0; --tw-rotate: 0; --tw-skew-x: 0; --tw-skew-y: 0; --tw-scale-x: 1; --tw-scale-y: 1; --tw-pan-x: ; --tw-pan-y: ; --tw-pinch-zoom: ; --tw-scroll-snap-strictness: proximity; --tw-ordinal: ; --tw-slashed-zero: ; --tw-numeric-figure: ; --tw-numeric-spacing: ; --tw-numeric-fraction: ; --tw-ring-inset: ; --tw-ring-offset-width: 0px; --tw-ring-offset-color: #fff; --tw-ring-color: rgb(59 130 246 / 0.5); --tw-ring-offset-shadow: 0 0 #0000; --tw-ring-shadow: 0 0 #0000; --tw-shadow: 0 0 #0000; --tw-shadow-colored: 0 0 #0000; --tw-blur: ; --tw-brightness: ; --tw-contrast: ; --tw-grayscale: ; --tw-hue-rotate: ; --tw-invert: ; --tw-saturate: ; --tw-sepia: ; --tw-drop-shadow: ; --tw-backdrop-blur: ; --tw-backdrop-brightness: ; --tw-backdrop-contrast: ; --tw-backdrop-grayscale: ; --tw-backdrop-hue-rotate: ; --tw-backdrop-invert: ; --tw-backdrop-opacity: ; --tw-backdrop-saturate: ; --tw-backdrop-sepia: ;&quot;&gt;&lt;span style=&quot;--tw-border-spacing-x: 0; --tw-border-spacing-y: 0; --tw-translate-x: 0; --tw-translate-y: 0; --tw-rotate: 0; --tw-skew-x: 0; --tw-skew-y: 0; --tw-scale-x: 1; --tw-scale-y: 1; --tw-pan-x: ; --tw-pan-y: ; --tw-pinch-zoom: ; --tw-scroll-snap-strictness: proximity; --tw-ordinal: ; --tw-slashed-zero: ; --tw-numeric-figure: ; --tw-numeric-spacing: ; --tw-numeric-fraction: ; --tw-ring-inset: ; --tw-ring-offset-width: 0px; --tw-ring-offset-color: #fff; --tw-ring-color: rgb(59 130 246 / 0.5); --tw-ring-offset-shadow: 0 0 #0000; --tw-ring-shadow: 0 0 #0000; --tw-shadow: 0 0 #0000; --tw-shadow-colored: 0 0 #0000; --tw-blur: ; --tw-brightness: ; --tw-contrast: ; --tw-grayscale: ; --tw-hue-rotate: ; --tw-invert: ; --tw-saturate: ; --tw-sepia: ; --tw-drop-shadow: ; --tw-backdrop-blur: ; --tw-backdrop-brightness: ; --tw-backdrop-contrast: ; --tw-backdrop-grayscale: ; --tw-backdrop-hue-rotate: ; --tw-backdrop-invert: ; --tw-backdrop-opacity: ; --tw-backdrop-saturate: ; --tw-backdrop-sepia: ; font-size: 21px;&quot;&gt;&amp;nbsp; &amp;nbsp; }&lt;/span&gt;&lt;/p&gt;" style="text;html=1;strokeColor=#d6b656;fillColor=#fff2cc;spacing=5;spacingTop=-20;whiteSpace=wrap;overflow=hidden;rounded=0;fontSize=20;" parent="HmtUBin2OTczEG9LACiG-1" vertex="1">
          <mxGeometry x="414" y="920" width="430" height="490" as="geometry" />
        </mxCell>
        <mxCell id="QuvbPIlJq2SeDHdVV6D2-5" style="edgeStyle=orthogonalEdgeStyle;rounded=0;orthogonalLoop=1;jettySize=auto;html=1;fontSize=21;dashed=1;dashPattern=1 2;endArrow=none;endFill=0;entryX=0;entryY=0;entryDx=195;entryDy=15;entryPerimeter=0;" parent="HmtUBin2OTczEG9LACiG-1" target="HmtUBin2OTczEG9LACiG-36" edge="1">
          <mxGeometry relative="1" as="geometry">
            <Array as="points">
              <mxPoint x="349" y="1165" />
              <mxPoint x="349" y="328" />
            </Array>
            <mxPoint x="414" y="1165" as="sourcePoint" />
            <mxPoint x="349" y="1030" as="targetPoint" />
          </mxGeometry>
        </mxCell>
      </root>
    </mxGraphModel>
  </diagram>
  <diagram id="w1Ivq3AcxrgIhCtNEgDY" name="流程图">
    <mxGraphModel dx="1395" dy="737" grid="1" gridSize="10" guides="1" tooltips="1" connect="1" arrows="1" fold="1" page="1" pageScale="1" pageWidth="827" pageHeight="1169" math="0" shadow="0">
      <root>
        <mxCell id="0" />
        <mxCell id="1" parent="0" />
        <mxCell id="RIcdF8euCd2dyjH96vbt-3" value="" style="edgeStyle=orthogonalEdgeStyle;rounded=0;orthogonalLoop=1;jettySize=auto;html=1;" edge="1" parent="1" source="RIcdF8euCd2dyjH96vbt-1" target="RIcdF8euCd2dyjH96vbt-2">
          <mxGeometry relative="1" as="geometry" />
        </mxCell>
        <mxCell id="RIcdF8euCd2dyjH96vbt-1" value="AI模块启动" style="strokeWidth=2;html=1;shape=mxgraph.flowchart.start_1;whiteSpace=wrap;" vertex="1" parent="1">
          <mxGeometry x="290" y="280" width="100" height="80" as="geometry" />
        </mxCell>
        <mxCell id="RIcdF8euCd2dyjH96vbt-5" value="" style="edgeStyle=orthogonalEdgeStyle;rounded=0;orthogonalLoop=1;jettySize=auto;html=1;" edge="1" parent="1" source="RIcdF8euCd2dyjH96vbt-2" target="RIcdF8euCd2dyjH96vbt-4">
          <mxGeometry relative="1" as="geometry" />
        </mxCell>
        <mxCell id="RIcdF8euCd2dyjH96vbt-2" value="拉取云控summary文件与本地summary文件进行比较" style="whiteSpace=wrap;html=1;strokeWidth=2;" vertex="1" parent="1">
          <mxGeometry x="280" y="400" width="120" height="60" as="geometry" />
        </mxCell>
        <mxCell id="RIcdF8euCd2dyjH96vbt-7" value="" style="edgeStyle=orthogonalEdgeStyle;rounded=0;orthogonalLoop=1;jettySize=auto;html=1;" edge="1" parent="1" source="RIcdF8euCd2dyjH96vbt-4" target="RIcdF8euCd2dyjH96vbt-6">
          <mxGeometry relative="1" as="geometry" />
        </mxCell>
        <mxCell id="RIcdF8euCd2dyjH96vbt-8" value="否" style="edgeLabel;html=1;align=center;verticalAlign=middle;resizable=0;points=[];" vertex="1" connectable="0" parent="RIcdF8euCd2dyjH96vbt-7">
          <mxGeometry x="-0.4" relative="1" as="geometry">
            <mxPoint as="offset" />
          </mxGeometry>
        </mxCell>
        <mxCell id="RIcdF8euCd2dyjH96vbt-10" value="" style="edgeStyle=orthogonalEdgeStyle;rounded=0;orthogonalLoop=1;jettySize=auto;html=1;" edge="1" parent="1" source="RIcdF8euCd2dyjH96vbt-53" target="RIcdF8euCd2dyjH96vbt-9">
          <mxGeometry relative="1" as="geometry" />
        </mxCell>
        <mxCell id="RIcdF8euCd2dyjH96vbt-4" value="是否打开增量更新切符合灰度用户" style="rhombus;whiteSpace=wrap;html=1;strokeWidth=2;" vertex="1" parent="1">
          <mxGeometry x="270" y="630" width="140" height="80" as="geometry" />
        </mxCell>
        <mxCell id="RIcdF8euCd2dyjH96vbt-6" value="使用旧版本逻辑进行全量更新云控" style="whiteSpace=wrap;html=1;strokeWidth=2;" vertex="1" parent="1">
          <mxGeometry x="50" y="640" width="120" height="60" as="geometry" />
        </mxCell>
        <mxCell id="RIcdF8euCd2dyjH96vbt-16" value="" style="edgeStyle=orthogonalEdgeStyle;rounded=0;orthogonalLoop=1;jettySize=auto;html=1;" edge="1" parent="1" source="RIcdF8euCd2dyjH96vbt-9" target="RIcdF8euCd2dyjH96vbt-15">
          <mxGeometry relative="1" as="geometry" />
        </mxCell>
        <mxCell id="RIcdF8euCd2dyjH96vbt-9" value="比较本地版本目录与valid_version差异" style="whiteSpace=wrap;html=1;strokeWidth=2;" vertex="1" parent="1">
          <mxGeometry x="280" y="930" width="120" height="60" as="geometry" />
        </mxCell>
        <mxCell id="RIcdF8euCd2dyjH96vbt-23" value="" style="edgeStyle=orthogonalEdgeStyle;rounded=0;orthogonalLoop=1;jettySize=auto;html=1;" edge="1" parent="1" source="RIcdF8euCd2dyjH96vbt-15">
          <mxGeometry relative="1" as="geometry">
            <mxPoint x="340" y="1220" as="targetPoint" />
          </mxGeometry>
        </mxCell>
        <mxCell id="RIcdF8euCd2dyjH96vbt-25" value="" style="edgeStyle=orthogonalEdgeStyle;rounded=0;orthogonalLoop=1;jettySize=auto;html=1;" edge="1" parent="1" source="RIcdF8euCd2dyjH96vbt-15" target="RIcdF8euCd2dyjH96vbt-24">
          <mxGeometry relative="1" as="geometry" />
        </mxCell>
        <mxCell id="RIcdF8euCd2dyjH96vbt-15" value="存在未拉取版本" style="rhombus;whiteSpace=wrap;html=1;strokeWidth=2;" vertex="1" parent="1">
          <mxGeometry x="270" y="1050" width="140" height="80" as="geometry" />
        </mxCell>
        <mxCell id="RIcdF8euCd2dyjH96vbt-36" value="" style="edgeStyle=orthogonalEdgeStyle;rounded=0;orthogonalLoop=1;jettySize=auto;html=1;entryX=0;entryY=0.5;entryDx=0;entryDy=0;" edge="1" parent="1" source="RIcdF8euCd2dyjH96vbt-24" target="RIcdF8euCd2dyjH96vbt-34">
          <mxGeometry relative="1" as="geometry">
            <mxPoint x="120" y="1210" as="targetPoint" />
            <Array as="points">
              <mxPoint x="120" y="1260" />
            </Array>
          </mxGeometry>
        </mxCell>
        <mxCell id="RIcdF8euCd2dyjH96vbt-24" value="云控拉取增量更新缺失版本文件" style="whiteSpace=wrap;html=1;strokeWidth=2;" vertex="1" parent="1">
          <mxGeometry x="60" y="1060" width="120" height="60" as="geometry" />
        </mxCell>
        <mxCell id="RIcdF8euCd2dyjH96vbt-28" value="&lt;font style=&quot;font-size: 14px;&quot;&gt;是&lt;/font&gt;" style="edgeLabel;html=1;align=center;verticalAlign=middle;resizable=0;points=[];" vertex="1" connectable="0" parent="1">
          <mxGeometry x="347" y="880" as="geometry">
            <mxPoint x="-111" y="213" as="offset" />
          </mxGeometry>
        </mxCell>
        <mxCell id="RIcdF8euCd2dyjH96vbt-29" value="&lt;font style=&quot;font-size: 14px;&quot;&gt;否&lt;/font&gt;" style="edgeLabel;html=1;align=center;verticalAlign=middle;resizable=0;points=[];" vertex="1" connectable="0" parent="1">
          <mxGeometry x="249" y="670" as="geometry">
            <mxPoint x="87" y="354" as="offset" />
          </mxGeometry>
        </mxCell>
        <mxCell id="RIcdF8euCd2dyjH96vbt-47" value="" style="edgeStyle=orthogonalEdgeStyle;rounded=0;orthogonalLoop=1;jettySize=auto;html=1;" edge="1" parent="1" source="RIcdF8euCd2dyjH96vbt-34" target="RIcdF8euCd2dyjH96vbt-46">
          <mxGeometry relative="1" as="geometry" />
        </mxCell>
        <mxCell id="RIcdF8euCd2dyjH96vbt-50" value="" style="edgeStyle=orthogonalEdgeStyle;rounded=0;orthogonalLoop=1;jettySize=auto;html=1;entryX=1;entryY=0.5;entryDx=0;entryDy=0;entryPerimeter=0;" edge="1" parent="1" source="RIcdF8euCd2dyjH96vbt-34" target="RIcdF8euCd2dyjH96vbt-39">
          <mxGeometry relative="1" as="geometry">
            <mxPoint x="600" y="1470" as="targetPoint" />
            <Array as="points">
              <mxPoint x="550" y="1260" />
              <mxPoint x="550" y="1530" />
            </Array>
          </mxGeometry>
        </mxCell>
        <mxCell id="RIcdF8euCd2dyjH96vbt-34" value="最新版本&lt;div&gt;是否合法目录？&lt;/div&gt;" style="rhombus;whiteSpace=wrap;html=1;strokeWidth=2;" vertex="1" parent="1">
          <mxGeometry x="270" y="1220" width="140" height="80" as="geometry" />
        </mxCell>
        <mxCell id="RIcdF8euCd2dyjH96vbt-39" value="将增量更新目录发布至asset目录" style="strokeWidth=2;html=1;shape=mxgraph.flowchart.start_1;whiteSpace=wrap;" vertex="1" parent="1">
          <mxGeometry x="290" y="1490" width="100" height="80" as="geometry" />
        </mxCell>
        <mxCell id="RIcdF8euCd2dyjH96vbt-48" value="" style="edgeStyle=orthogonalEdgeStyle;rounded=0;orthogonalLoop=1;jettySize=auto;html=1;" edge="1" parent="1" source="RIcdF8euCd2dyjH96vbt-46" target="RIcdF8euCd2dyjH96vbt-39">
          <mxGeometry relative="1" as="geometry" />
        </mxCell>
        <mxCell id="RIcdF8euCd2dyjH96vbt-46" value="寻找valid_version较新版本且为合法目录" style="whiteSpace=wrap;html=1;strokeWidth=2;" vertex="1" parent="1">
          <mxGeometry x="280" y="1370" width="120" height="60" as="geometry" />
        </mxCell>
        <mxCell id="RIcdF8euCd2dyjH96vbt-51" value="&lt;font style=&quot;font-size: 14px;&quot;&gt;是&lt;/font&gt;" style="edgeLabel;html=1;align=center;verticalAlign=middle;resizable=0;points=[];" vertex="1" connectable="0" parent="1">
          <mxGeometry x="620" y="1050" as="geometry">
            <mxPoint x="-111" y="213" as="offset" />
          </mxGeometry>
        </mxCell>
        <mxCell id="RIcdF8euCd2dyjH96vbt-52" value="&lt;font style=&quot;font-size: 14px;&quot;&gt;否&lt;/font&gt;" style="edgeLabel;html=1;align=center;verticalAlign=middle;resizable=0;points=[];" vertex="1" connectable="0" parent="1">
          <mxGeometry x="249" y="980" as="geometry">
            <mxPoint x="87" y="354" as="offset" />
          </mxGeometry>
        </mxCell>
        <mxCell id="RIcdF8euCd2dyjH96vbt-54" value="" style="edgeStyle=orthogonalEdgeStyle;rounded=0;orthogonalLoop=1;jettySize=auto;html=1;" edge="1" parent="1" source="RIcdF8euCd2dyjH96vbt-4" target="RIcdF8euCd2dyjH96vbt-53">
          <mxGeometry relative="1" as="geometry">
            <mxPoint x="340" y="710" as="sourcePoint" />
            <mxPoint x="340" y="930" as="targetPoint" />
          </mxGeometry>
        </mxCell>
        <mxCell id="RIcdF8euCd2dyjH96vbt-55" value="&lt;font style=&quot;font-size: 14px;&quot;&gt;是&lt;/font&gt;" style="edgeLabel;html=1;align=center;verticalAlign=middle;resizable=0;points=[];" vertex="1" connectable="0" parent="RIcdF8euCd2dyjH96vbt-54">
          <mxGeometry x="-0.3556" y="-3" relative="1" as="geometry">
            <mxPoint x="3" y="4" as="offset" />
          </mxGeometry>
        </mxCell>
        <mxCell id="RIcdF8euCd2dyjH96vbt-53" value="删除非法目录" style="whiteSpace=wrap;html=1;strokeWidth=2;" vertex="1" parent="1">
          <mxGeometry x="280" y="790" width="120" height="60" as="geometry" />
        </mxCell>
        <mxCell id="RIcdF8euCd2dyjH96vbt-56" value="summary文件&lt;div&gt;是否有变动？&lt;/div&gt;" style="rhombus;whiteSpace=wrap;html=1;strokeWidth=2;" vertex="1" parent="1">
          <mxGeometry x="270" y="505" width="140" height="80" as="geometry" />
        </mxCell>
        <mxCell id="RIcdF8euCd2dyjH96vbt-58" value="&lt;font style=&quot;font-size: 14px;&quot;&gt;是&lt;/font&gt;" style="edgeLabel;html=1;align=center;verticalAlign=middle;resizable=0;points=[];" vertex="1" connectable="0" parent="1">
          <mxGeometry x="350" y="760.0033333333332" as="geometry">
            <mxPoint x="-13" y="-152" as="offset" />
          </mxGeometry>
        </mxCell>
        <mxCell id="RIcdF8euCd2dyjH96vbt-59" value="" style="edgeStyle=orthogonalEdgeStyle;rounded=0;orthogonalLoop=1;jettySize=auto;html=1;" edge="1" parent="1">
          <mxGeometry relative="1" as="geometry">
            <mxPoint x="270" y="544.58" as="sourcePoint" />
            <mxPoint x="170" y="544.58" as="targetPoint" />
          </mxGeometry>
        </mxCell>
        <mxCell id="RIcdF8euCd2dyjH96vbt-60" value="否" style="edgeLabel;html=1;align=center;verticalAlign=middle;resizable=0;points=[];" vertex="1" connectable="0" parent="RIcdF8euCd2dyjH96vbt-59">
          <mxGeometry x="-0.4" relative="1" as="geometry">
            <mxPoint as="offset" />
          </mxGeometry>
        </mxCell>
        <mxCell id="RIcdF8euCd2dyjH96vbt-61" value="流程结束" style="strokeWidth=2;html=1;shape=mxgraph.flowchart.start_1;whiteSpace=wrap;" vertex="1" parent="1">
          <mxGeometry x="70" y="500" width="100" height="80" as="geometry" />
        </mxCell>
      </root>
    </mxGraphModel>
  </diagram>
</mxfile>
